<svg xmlns="http://www.w3.org/2000/svg" xmlns:xlink="http://www.w3.org/1999/xlink" width="562" zoomAndPan="magnify" viewBox="0 0 421.5 206.249992" height="275" preserveAspectRatio="xMidYMid meet" version="1.0"><defs><g/><clipPath id="c9afa7dbd4"><path d="M 268 58 L 273.027344 58 L 273.027344 63 L 268 63 Z M 268 58 " clip-rule="nonzero"/></clipPath><clipPath id="4d44886980"><path d="M 176.46875 31.546875 L 269 31.546875 L 269 100.296875 L 176.46875 100.296875 Z M 176.46875 31.546875 " clip-rule="nonzero"/></clipPath></defs><g fill="#34230b" fill-opacity="1"><g transform="translate(75.118563, 124.830941)"><g><path d="M 111.25 -15.96875 C 111.394531 -15.882812 111.507812 -15.738281 111.59375 -15.53125 C 111.6875 -15.320312 111.734375 -15.117188 111.734375 -14.921875 C 111.796875 -14.460938 111.535156 -14.140625 110.953125 -13.953125 C 110.367188 -13.773438 109.632812 -13.660156 108.75 -13.609375 C 107.863281 -13.554688 106.976562 -13.53125 106.09375 -13.53125 C 104.976562 -13.53125 104.144531 -13.488281 103.59375 -13.40625 C 103.050781 -13.300781 102.734375 -13.050781 102.640625 -12.65625 C 102.546875 -12.269531 102.539062 -11.613281 102.625 -10.6875 C 102.664062 -10.1875 102.71875 -9.585938 102.78125 -8.890625 C 103.363281 1.191406 104.585938 11.1875 106.453125 21.09375 C 106.492188 21.28125 106.546875 21.445312 106.609375 21.59375 C 106.691406 21.957031 106.734375 22.328125 106.734375 22.703125 C 106.648438 23.359375 106.257812 23.820312 105.5625 24.09375 C 104.863281 24.375 104.128906 24.363281 103.359375 24.0625 C 102.585938 23.769531 102.085938 23.066406 101.859375 21.953125 C 101.585938 20.453125 101.3125 18.960938 101.03125 17.484375 C 100.570312 15.441406 100.175781 13.378906 99.84375 11.296875 C 98.632812 4.253906 97.78125 -2.820312 97.28125 -9.9375 C 97.238281 -11.050781 97.050781 -11.742188 96.71875 -12.015625 C 96.394531 -12.285156 95.648438 -12.347656 94.484375 -12.203125 C 91.785156 -11.972656 89.117188 -11.703125 86.484375 -11.390625 C 79.148438 -10.367188 71.796875 -9.554688 64.421875 -8.953125 C 64.378906 -8.953125 64.335938 -8.953125 64.296875 -8.953125 C 64.210938 -8.953125 64.113281 -8.953125 64 -8.953125 C 61.5625 -8.992188 59.921875 -7.757812 59.078125 -5.25 C 56.566406 1.601562 53.550781 8.210938 50.03125 14.578125 C 46.082031 21.804688 41.285156 28.4375 35.640625 34.46875 C 31.691406 38.5 27.195312 41.785156 22.15625 44.328125 C 17.125 46.878906 11.941406 48.664062 6.609375 49.6875 C 1.273438 50.71875 -3.820312 50.988281 -8.6875 50.5 C -13.5625 50.019531 -17.804688 48.765625 -21.421875 46.734375 C -25.035156 44.710938 -27.65625 41.929688 -29.28125 38.390625 C -30.90625 34.847656 -31.117188 30.523438 -29.921875 25.421875 C -28.710938 20.785156 -26.503906 16.816406 -23.296875 13.515625 C -20.097656 10.210938 -16.34375 7.4375 -12.03125 5.1875 C -7.71875 2.945312 -3.242188 1.097656 1.390625 -0.359375 C 6.023438 -1.828125 10.410156 -3.066406 14.546875 -4.078125 C 20.617188 -5.617188 27.0625 -7.007812 33.875 -8.25 C 40.695312 -9.5 47.21875 -10.382812 53.4375 -10.90625 C 55.0625 -10.945312 56.148438 -11.757812 56.703125 -13.34375 C 57.078125 -14.394531 57.5 -15.4375 57.96875 -16.46875 C 58.15625 -16.9375 58.332031 -17.367188 58.5 -17.765625 C 59.382812 -19.921875 60.269531 -22.082031 61.15625 -24.25 C 64.175781 -31.945312 67.425781 -39.707031 70.90625 -47.53125 C 74.382812 -55.351562 78.300781 -62.859375 82.65625 -70.046875 C 87.019531 -77.234375 92.03125 -83.75 97.6875 -89.59375 C 99.125 -90.976562 100.628906 -92.316406 102.203125 -93.609375 C 102.941406 -94.222656 103.972656 -94.691406 105.296875 -95.015625 C 106.628906 -95.335938 107.757812 -95.273438 108.6875 -94.828125 C 109.613281 -94.390625 109.867188 -93.285156 109.453125 -91.515625 C 108.484375 -87.867188 107.648438 -84.164062 106.953125 -80.40625 C 106.253906 -76.644531 105.617188 -72.882812 105.046875 -69.125 C 105.046875 -68.9375 105.023438 -68.75 104.984375 -68.5625 C 103.679688 -60.039062 102.878906 -52.007812 102.578125 -44.46875 C 102.285156 -36.9375 102.160156 -28.878906 102.203125 -20.296875 C 102.203125 -19.367188 102.242188 -18.441406 102.328125 -17.515625 C 102.390625 -16.867188 102.71875 -16.519531 103.3125 -16.46875 C 104.34375 -16.40625 105.34375 -16.40625 106.3125 -16.46875 C 107.476562 -16.519531 108.640625 -16.519531 109.796875 -16.46875 C 110.304688 -16.40625 110.789062 -16.238281 111.25 -15.96875 Z M 53.5 -5.34375 C 53.882812 -6.351562 53.921875 -6.972656 53.609375 -7.203125 C 53.304688 -7.441406 52.648438 -7.488281 51.640625 -7.34375 C 46.703125 -6.707031 41.773438 -5.992188 36.859375 -5.203125 C 31.953125 -4.410156 27.085938 -3.4375 22.265625 -2.28125 C 21.566406 -2.09375 20.847656 -1.921875 20.109375 -1.765625 C 16.085938 -0.796875 11.765625 0.34375 7.140625 1.65625 C 2.523438 2.976562 -1.960938 4.660156 -6.328125 6.703125 C -10.691406 8.742188 -14.46875 11.289062 -17.65625 14.34375 C -20.851562 17.40625 -23.082031 21.097656 -24.34375 25.421875 C -25.632812 30.796875 -25.332031 35.15625 -23.4375 38.5 C -21.539062 41.84375 -18.550781 44.238281 -14.46875 45.6875 C -10.382812 47.144531 -5.78125 47.6875 -0.65625 47.3125 C 4.457031 46.945312 9.566406 45.734375 14.671875 43.671875 C 19.773438 41.609375 24.347656 38.753906 28.390625 35.109375 C 34.046875 29.660156 38.84375 23.554688 42.78125 16.796875 C 44.914062 13.273438 46.84375 9.65625 48.5625 5.9375 C 50.28125 2.226562 51.925781 -1.53125 53.5 -5.34375 Z M 101.453125 -78.9375 C 101.453125 -79.039062 101.472656 -79.175781 101.515625 -79.34375 C 101.660156 -80.101562 101.859375 -81.148438 102.109375 -82.484375 C 102.367188 -83.828125 102.539062 -85.035156 102.625 -86.109375 C 102.769531 -87.035156 102.734375 -87.585938 102.515625 -87.765625 C 102.304688 -87.953125 101.8125 -87.582031 101.03125 -86.65625 C 100.570312 -86.101562 100.109375 -85.550781 99.640625 -85 C 97.867188 -83.039062 96.148438 -81.019531 94.484375 -78.9375 C 90.734375 -74.101562 87.234375 -68.660156 83.984375 -62.609375 C 80.742188 -56.566406 77.734375 -50.296875 74.953125 -43.796875 C 72.171875 -37.304688 69.546875 -30.984375 67.078125 -24.828125 C 65.910156 -21.984375 64.769531 -19.242188 63.65625 -16.609375 C 62.6875 -14.328125 62.316406 -12.960938 62.546875 -12.515625 C 62.785156 -12.078125 63.851562 -12.023438 65.75 -12.359375 C 66.019531 -12.359375 66.34375 -12.378906 66.71875 -12.421875 C 72.4375 -12.972656 78.117188 -13.597656 83.765625 -14.296875 C 86.234375 -14.585938 88.691406 -14.867188 91.140625 -15.140625 C 91.648438 -15.234375 92.132812 -15.300781 92.59375 -15.34375 C 93.4375 -15.445312 94.300781 -15.539062 95.1875 -15.625 C 95.738281 -15.664062 96.140625 -15.828125 96.390625 -16.109375 C 96.640625 -16.398438 96.765625 -16.867188 96.765625 -17.515625 C 96.765625 -17.921875 96.765625 -18.351562 96.765625 -18.8125 C 96.765625 -19.039062 96.765625 -19.273438 96.765625 -19.515625 C 96.722656 -30.015625 96.96875 -39.875 97.5 -49.09375 C 98.039062 -58.320312 99.359375 -68.269531 101.453125 -78.9375 Z M 101.453125 -78.9375 "/></g></g></g><g fill="#34230b" fill-opacity="1"><g transform="translate(189.359759, 124.830941)"><g><path d="M 16.765625 -21.40625 C 17.140625 -21.300781 17.429688 -21.132812 17.640625 -20.90625 C 17.859375 -20.675781 17.9375 -20.359375 17.875 -19.953125 C 17.695312 -19.023438 17.460938 -18.117188 17.171875 -17.234375 C 16.617188 -15.378906 15.914062 -13.582031 15.0625 -11.84375 C 14.207031 -10.101562 13.109375 -8.484375 11.765625 -6.984375 C 11.335938 -6.523438 10.898438 -6.097656 10.453125 -5.703125 C 10.015625 -5.316406 9.503906 -5.03125 8.921875 -4.84375 C 7.523438 -4.414062 6.195312 -4.363281 4.9375 -4.6875 C 3.6875 -5.019531 2.660156 -6.019531 1.859375 -7.6875 C 0.429688 -10.882812 -0.441406 -14.242188 -0.765625 -17.765625 C -0.867188 -19.035156 -0.457031 -19.785156 0.46875 -20.015625 C 1.269531 -20.242188 2.007812 -20.265625 2.6875 -20.078125 C 3.363281 -19.890625 3.816406 -19.519531 4.046875 -18.96875 C 4.398438 -18 4.675781 -17 4.875 -15.96875 C 4.957031 -15.695312 5.03125 -15.421875 5.09375 -15.140625 C 5.175781 -14.679688 5.257812 -14.238281 5.34375 -13.8125 C 5.632812 -12.613281 5.925781 -11.617188 6.21875 -10.828125 C 6.519531 -10.035156 6.945312 -9.71875 7.5 -9.875 C 8.0625 -10.039062 8.804688 -10.929688 9.734375 -12.546875 C 11.085938 -14.867188 12.226562 -17.304688 13.15625 -19.859375 C 13.851562 -21.441406 15.054688 -21.957031 16.765625 -21.40625 Z M 16.765625 -21.40625 "/></g></g></g><g fill="#34230b" fill-opacity="1"><g transform="translate(208.299831, 124.830941)"><g><path d="M 6.734375 -12.359375 C 6.691406 -12.359375 6.648438 -12.359375 6.609375 -12.359375 C 6.609375 -12.359375 6.628906 -12.359375 6.671875 -12.359375 C 6.671875 -12.359375 6.691406 -12.359375 6.734375 -12.359375 Z M 28.875 -15.5625 C 29.101562 -15.707031 29.46875 -15.878906 29.96875 -16.078125 C 30.476562 -16.273438 30.960938 -16.390625 31.421875 -16.421875 C 31.890625 -16.453125 32.222656 -16.28125 32.421875 -15.90625 C 32.566406 -15.632812 32.601562 -15.367188 32.53125 -15.109375 C 32.457031 -14.859375 32.320312 -14.640625 32.125 -14.453125 C 30.96875 -13.179688 29.171875 -11.898438 26.734375 -10.609375 C 24.296875 -9.316406 21.769531 -8.171875 19.15625 -7.171875 C 16.550781 -6.179688 14.382812 -5.539062 12.65625 -5.25 C 10.664062 -4.894531 8.648438 -4.8125 6.609375 -5 C 4.097656 -5.3125 2.226562 -6.347656 1 -8.109375 C -0.21875 -9.867188 -0.707031 -11.847656 -0.46875 -14.046875 C -0.113281 -16.484375 1 -18.425781 2.875 -19.875 C 4.75 -21.320312 6.898438 -21.851562 9.328125 -21.46875 C 10.804688 -21.28125 12.144531 -20.742188 13.34375 -19.859375 C 14.65625 -18.804688 15.238281 -17.59375 15.09375 -16.21875 C 14.957031 -14.851562 14.144531 -13.800781 12.65625 -13.0625 C 11.875 -12.675781 11.007812 -12.4375 10.0625 -12.34375 C 9.113281 -12.25 8.003906 -12.253906 6.734375 -12.359375 C 6.734375 -12.359375 6.703125 -12.359375 6.640625 -12.359375 C 6.578125 -12.359375 6.476562 -12.359375 6.34375 -12.359375 C 6.207031 -12.359375 6.0625 -12.359375 5.90625 -12.359375 C 5.53125 -12.359375 5.285156 -12.253906 5.171875 -12.046875 C 5.054688 -11.835938 5.050781 -11.578125 5.15625 -11.265625 C 5.851562 -9.535156 7.21875 -8.617188 9.25 -8.515625 C 11.28125 -8.421875 13.585938 -8.804688 16.171875 -9.671875 C 18.753906 -10.535156 21.203125 -11.535156 23.515625 -12.671875 C 25.835938 -13.816406 27.625 -14.78125 28.875 -15.5625 Z M 6.671875 -17.578125 C 6.359375 -17.347656 6.140625 -17.078125 6.015625 -16.765625 C 5.898438 -16.460938 5.832031 -16.207031 5.8125 -16 C 5.789062 -15.789062 5.820312 -15.664062 5.90625 -15.625 C 6 -15.582031 6.265625 -15.523438 6.703125 -15.453125 C 7.148438 -15.378906 7.640625 -15.367188 8.171875 -15.421875 C 8.710938 -15.472656 9.15625 -15.585938 9.5 -15.765625 C 9.851562 -15.941406 9.972656 -16.265625 9.859375 -16.734375 C 9.628906 -17.378906 9.179688 -17.785156 8.515625 -17.953125 C 7.859375 -18.128906 7.242188 -18.003906 6.671875 -17.578125 Z M 6.671875 -17.578125 "/></g></g></g><g fill="#34230b" fill-opacity="1"><g transform="translate(237.516234, 124.830941)"><g><path d="M 41.75 -14.859375 C 41.75 -14.859375 41.769531 -14.859375 41.8125 -14.859375 C 42.039062 -14.816406 42.269531 -14.738281 42.5 -14.625 C 42.726562 -14.507812 42.875 -14.285156 42.9375 -13.953125 C 43.070312 -13.359375 42.90625 -12.890625 42.4375 -12.546875 C 40.539062 -11.222656 38.503906 -10.179688 36.328125 -9.421875 C 34.367188 -8.785156 32.394531 -8.382812 30.40625 -8.21875 C 28.414062 -8.050781 26.394531 -8.0625 24.34375 -8.25 C 21.707031 -8.53125 19.582031 -9.785156 17.96875 -12.015625 C 17.457031 -12.710938 16.9375 -13.410156 16.40625 -14.109375 C 15.90625 -14.796875 15.378906 -15.507812 14.828125 -16.25 C 14.367188 -16.863281 13.789062 -16.9375 13.09375 -16.46875 C 12.25 -15.863281 11.488281 -15.175781 10.8125 -14.40625 C 10.132812 -13.632812 9.503906 -12.835938 8.921875 -12.015625 C 8.878906 -11.910156 8.828125 -11.816406 8.765625 -11.734375 C 8.523438 -11.460938 8.289062 -11.15625 8.0625 -10.8125 C 7.789062 -10.3125 7.472656 -9.847656 7.109375 -9.421875 C 6.503906 -8.722656 5.710938 -8.273438 4.734375 -8.078125 C 3.765625 -7.878906 2.835938 -7.957031 1.953125 -8.3125 C 1.304688 -8.65625 0.890625 -9.140625 0.703125 -9.765625 C 0.109375 -12.148438 -0.257812 -14.546875 -0.40625 -16.953125 C -0.40625 -18.253906 0.191406 -19.023438 1.390625 -19.265625 C 2.785156 -19.578125 3.785156 -19.132812 4.390625 -17.9375 C 4.472656 -17.738281 4.535156 -17.503906 4.578125 -17.234375 C 4.648438 -16.960938 4.742188 -16.691406 4.859375 -16.421875 C 4.972656 -16.160156 5.1875 -15.945312 5.5 -15.78125 C 5.882812 -16.09375 6.234375 -16.390625 6.546875 -16.671875 C 7.285156 -17.316406 8.003906 -17.945312 8.703125 -18.5625 C 9.546875 -19.257812 10.429688 -19.753906 11.359375 -20.046875 C 12.285156 -20.347656 13.273438 -20.5 14.328125 -20.5 C 16.796875 -20.5 18.742188 -19.523438 20.171875 -17.578125 C 20.453125 -17.160156 20.738281 -16.757812 21.03125 -16.375 C 21.664062 -15.40625 22.328125 -14.476562 23.015625 -13.59375 C 24.140625 -12.164062 25.628906 -11.429688 27.484375 -11.390625 C 29.378906 -11.304688 31.195312 -11.476562 32.9375 -11.90625 C 34.675781 -12.332031 36.359375 -12.992188 37.984375 -13.890625 C 38.046875 -13.929688 38.117188 -13.984375 38.203125 -14.046875 C 38.753906 -14.359375 39.316406 -14.609375 39.890625 -14.796875 C 40.472656 -14.984375 41.09375 -15.003906 41.75 -14.859375 Z M 41.75 -14.859375 "/></g></g></g><g fill="#34230b" fill-opacity="1"><g transform="translate(276.534678, 124.830941)"><g><path d="M 23.015625 -15.84375 C 23.296875 -15.695312 23.425781 -15.445312 23.40625 -15.09375 C 23.382812 -14.75 23.273438 -14.441406 23.078125 -14.171875 C 21.648438 -12.035156 20.113281 -10.144531 18.46875 -8.5 C 16.820312 -6.863281 15.015625 -5.640625 13.046875 -4.828125 C 11.078125 -4.015625 8.816406 -3.785156 6.265625 -4.140625 C 4.554688 -4.410156 3.269531 -4.988281 2.40625 -5.875 C 1.539062 -6.757812 0.894531 -8.015625 0.46875 -9.640625 C -0.21875 -12.191406 -0.375 -14.816406 0 -17.515625 C 0.3125 -19.078125 1.28125 -19.890625 2.90625 -19.953125 C 4.363281 -19.953125 5.15625 -19.300781 5.28125 -18 C 5.320312 -16.914062 5.320312 -15.847656 5.28125 -14.796875 C 5.28125 -14.648438 5.28125 -14.515625 5.28125 -14.390625 C 5.195312 -11.503906 5.664062 -9.523438 6.6875 -8.453125 C 7.707031 -7.390625 9.039062 -7.109375 10.6875 -7.609375 C 12.332031 -8.117188 14.082031 -9.28125 15.9375 -11.09375 C 16.164062 -11.332031 16.453125 -11.648438 16.796875 -12.046875 C 17.148438 -12.453125 17.539062 -12.851562 17.96875 -13.25 C 18.550781 -13.863281 19.035156 -14.378906 19.421875 -14.796875 C 20.578125 -15.960938 21.773438 -16.3125 23.015625 -15.84375 Z M 2.5 -24.609375 C 1.207031 -24.691406 0.46875 -25.382812 0.28125 -26.6875 C 0.132812 -27.695312 0.296875 -28.664062 0.765625 -29.59375 C 1.179688 -30.394531 1.863281 -30.941406 2.8125 -31.234375 C 3.757812 -31.535156 4.65625 -31.453125 5.5 -30.984375 C 5.820312 -30.816406 6.050781 -30.582031 6.1875 -30.28125 C 6.320312 -29.976562 6.367188 -29.726562 6.328125 -29.53125 C 6.285156 -26.207031 5.007812 -24.566406 2.5 -24.609375 Z M 2.5 -24.609375 "/></g></g></g><g fill="#34230b" fill-opacity="1"><g transform="translate(295.917433, 124.830941)"><g><path d="M 25.046875 -15.625 C 25.503906 -16 25.847656 -16.128906 26.078125 -16.015625 C 26.316406 -15.898438 26.484375 -15.664062 26.578125 -15.3125 C 26.671875 -14.96875 26.71875 -14.628906 26.71875 -14.296875 C 26.675781 -13.660156 26.550781 -13.050781 26.34375 -12.46875 C 26.132812 -11.894531 25.988281 -11.515625 25.90625 -11.328125 C 25.84375 -11.285156 25.8125 -11.265625 25.8125 -11.265625 C 25.175781 -9.640625 24.171875 -8.035156 22.796875 -6.453125 C 21.429688 -4.867188 19.816406 -3.59375 17.953125 -2.625 C 16.097656 -1.65625 14.128906 -1.234375 12.046875 -1.359375 C 9.117188 -1.691406 6.785156 -2.816406 5.046875 -4.734375 C 3.304688 -6.660156 2 -8.957031 1.125 -11.625 C 0.25 -14.289062 -0.332031 -16.921875 -0.625 -19.515625 C -1.40625 -25.921875 -1.640625 -32.367188 -1.328125 -38.859375 C -1.265625 -40.441406 -1.210938 -42.023438 -1.171875 -43.609375 C -1.171875 -44.160156 -1.171875 -44.707031 -1.171875 -45.25 C -1.171875 -46.28125 -1.65625 -46.796875 -2.625 -46.796875 C -3.65625 -46.796875 -4.675781 -46.816406 -5.6875 -46.859375 C -6.8125 -46.859375 -7.953125 -46.859375 -9.109375 -46.859375 C -9.253906 -46.859375 -9.410156 -46.859375 -9.578125 -46.859375 C -10.378906 -46.773438 -11.128906 -46.914062 -11.828125 -47.28125 C -12.140625 -47.425781 -12.398438 -47.625 -12.609375 -47.875 C -12.828125 -48.132812 -12.9375 -48.453125 -12.9375 -48.828125 C -12.894531 -49.179688 -12.742188 -49.460938 -12.484375 -49.671875 C -12.234375 -49.890625 -11.921875 -50 -11.546875 -50 C -10.191406 -50.039062 -8.84375 -50.0625 -7.5 -50.0625 C -6.675781 -50.0625 -5.863281 -50.0625 -5.0625 -50.0625 C -4.007812 -50.0625 -2.941406 -50.113281 -1.859375 -50.21875 C -1.273438 -50.257812 -0.910156 -50.609375 -0.765625 -51.265625 C -0.671875 -52.046875 -0.59375 -52.828125 -0.53125 -53.609375 C -0.363281 -56.148438 -0.1875 -58.695312 0 -61.25 C 0.144531 -63.019531 0.28125 -64.757812 0.40625 -66.46875 C 0.40625 -66.53125 0.40625 -66.582031 0.40625 -66.625 C 0.40625 -66.988281 0.4375 -67.335938 0.5 -67.671875 C 0.863281 -69.148438 1.859375 -69.847656 3.484375 -69.765625 C 4.867188 -69.660156 5.632812 -68.890625 5.78125 -67.453125 C 5.820312 -66.523438 5.820312 -65.578125 5.78125 -64.609375 C 5.78125 -64.222656 5.78125 -63.832031 5.78125 -63.4375 C 5.78125 -63.4375 5.757812 -63.4375 5.71875 -63.4375 C 5.65625 -62.363281 5.601562 -61.289062 5.5625 -60.21875 C 5.375 -57.8125 5.238281 -55.375 5.15625 -52.90625 C 5.070312 -51.625 5.1875 -50.816406 5.5 -50.484375 C 5.820312 -50.160156 6.675781 -50.019531 8.0625 -50.0625 C 10.675781 -50.019531 13.28125 -50 15.875 -50 C 17.726562 -50 19.582031 -49.976562 21.4375 -49.9375 C 21.625 -49.9375 21.804688 -49.9375 21.984375 -49.9375 C 22.441406 -49.976562 22.878906 -49.960938 23.296875 -49.890625 C 23.722656 -49.816406 24.148438 -49.660156 24.578125 -49.421875 C 24.703125 -49.296875 24.820312 -49.164062 24.9375 -49.03125 C 25.050781 -48.894531 25.140625 -48.710938 25.203125 -48.484375 C 25.203125 -48.242188 25.128906 -48.050781 24.984375 -47.90625 C 24.835938 -47.757812 24.703125 -47.644531 24.578125 -47.5625 C 23.734375 -47.09375 22.847656 -46.90625 21.921875 -47 C 21.785156 -47 21.625 -47 21.4375 -47 C 18.65625 -47 15.894531 -46.976562 13.15625 -46.9375 C 11.613281 -46.882812 10.0625 -46.859375 8.5 -46.859375 C 8.394531 -46.859375 8.300781 -46.859375 8.21875 -46.859375 C 7.519531 -46.859375 6.804688 -46.835938 6.078125 -46.796875 C 5.316406 -46.691406 4.875 -46.269531 4.75 -45.53125 C 4.632812 -45.113281 4.578125 -44.707031 4.578125 -44.3125 C 4.410156 -40.21875 4.335938 -36.117188 4.359375 -32.015625 C 4.378906 -27.921875 4.644531 -23.847656 5.15625 -19.796875 C 5.570312 -16.546875 6.425781 -13.4375 7.71875 -10.46875 C 8.414062 -8.84375 9.265625 -7.566406 10.265625 -6.640625 C 11.265625 -5.710938 12.382812 -5.320312 13.625 -5.46875 C 15.945312 -5.851562 17.742188 -6.679688 19.015625 -7.953125 C 20.296875 -9.222656 21.378906 -10.597656 22.265625 -12.078125 C 23.109375 -13.515625 24.035156 -14.695312 25.046875 -15.625 Z M 25.046875 -15.625 "/></g></g></g><g fill="#34230b" fill-opacity="1"><g transform="translate(319.031287, 124.830941)"><g><path d="M 28.96875 -15.90625 C 29.195312 -15.863281 29.351562 -15.796875 29.4375 -15.703125 C 29.519531 -15.609375 29.613281 -15.421875 29.71875 -15.140625 C 29.8125 -14.867188 29.71875 -14.539062 29.4375 -14.15625 C 29.164062 -13.78125 28.914062 -13.476562 28.6875 -13.25 C 26.957031 -11.625 24.929688 -10.65625 22.609375 -10.34375 C 21.285156 -10.15625 19.957031 -10.109375 18.625 -10.203125 C 17.300781 -10.296875 15.992188 -10.613281 14.703125 -11.15625 C 13.773438 -11.625 12.910156 -11.488281 12.109375 -10.75 C 10.441406 -9.226562 8.703125 -7.773438 6.890625 -6.390625 C 5.960938 -5.691406 4.988281 -5.109375 3.96875 -4.640625 C 2.945312 -4.179688 1.832031 -3.921875 0.625 -3.859375 C -2.894531 -3.921875 -4.285156 -5.640625 -3.546875 -9.015625 C -3.503906 -9.160156 -3.453125 -9.273438 -3.390625 -9.359375 C -2.367188 -12.097656 -1.03125 -14.566406 0.625 -16.765625 C 2.289062 -18.972656 4.398438 -20.816406 6.953125 -22.296875 C 8.640625 -23.285156 10.453125 -23.664062 12.390625 -23.4375 C 12.898438 -23.332031 13.382812 -23.140625 13.84375 -22.859375 C 14.414062 -22.585938 14.648438 -22.144531 14.546875 -21.53125 C 14.503906 -21.34375 14.414062 -21.179688 14.28125 -21.046875 C 14.144531 -20.910156 14 -20.78125 13.84375 -20.65625 C 13.757812 -20.550781 13.648438 -20.472656 13.515625 -20.421875 C 13.378906 -20.378906 13.238281 -20.359375 13.09375 -20.359375 C 11.695312 -20.316406 10.5 -19.910156 9.5 -19.140625 C 8.5 -18.378906 7.585938 -17.515625 6.765625 -16.546875 C 5.835938 -15.503906 4.976562 -14.363281 4.1875 -13.125 C 3.394531 -11.882812 2.75 -10.398438 2.25 -8.671875 C 4.101562 -9.742188 5.554688 -10.804688 6.609375 -11.859375 C 6.835938 -12.085938 7.070312 -12.296875 7.3125 -12.484375 C 7.5 -12.679688 7.6875 -12.851562 7.875 -13 C 8.800781 -13.863281 9.769531 -14.625 10.78125 -15.28125 C 11.9375 -15.925781 13.082031 -16.25 14.21875 -16.25 C 15.363281 -16.25 16.472656 -15.785156 17.546875 -14.859375 C 19.023438 -13.554688 20.457031 -13.046875 21.84375 -13.328125 C 23.238281 -13.609375 24.535156 -14.097656 25.734375 -14.796875 C 26.960938 -15.535156 28.039062 -15.90625 28.96875 -15.90625 Z M 28.96875 -15.90625 "/></g></g></g><path fill="#34230b" d="M 267.453125 71.261719 L 248.234375 71.261719 L 248.234375 70.699219 L 267.453125 70.699219 L 267.453125 71.261719 " fill-opacity="1" fill-rule="nonzero"/><g clip-path="url(#c9afa7dbd4)"><path fill="#34230b" d="M 270.84375 61.992188 C 269.988281 61.992188 269.296875 61.304688 269.296875 60.449219 C 269.296875 59.597656 269.988281 58.90625 270.84375 58.90625 C 271.695312 58.90625 272.386719 59.597656 272.386719 60.449219 C 272.386719 61.304688 271.695312 61.992188 270.84375 61.992188 Z M 270.84375 58 C 269.488281 58 268.394531 59.097656 268.394531 60.449219 C 268.394531 61.800781 269.488281 62.898438 270.84375 62.898438 C 272.195312 62.898438 273.292969 61.800781 273.292969 60.449219 C 273.292969 59.097656 272.195312 58 270.84375 58 " fill-opacity="1" fill-rule="nonzero"/></g><path fill="#34230b" d="M 253.320312 78.558594 C 252.46875 78.558594 251.777344 77.863281 251.777344 77.011719 C 251.777344 76.160156 252.46875 75.46875 253.320312 75.46875 C 254.171875 75.46875 254.863281 76.160156 254.863281 77.011719 C 254.863281 77.863281 254.171875 78.558594 253.320312 78.558594 Z M 253.320312 74.5625 C 251.96875 74.5625 250.871094 75.660156 250.871094 77.011719 C 250.871094 78.367188 251.96875 79.460938 253.320312 79.460938 C 254.671875 79.460938 255.769531 78.367188 255.769531 77.011719 C 255.769531 75.660156 254.671875 74.5625 253.320312 74.5625 " fill-opacity="1" fill-rule="nonzero"/><path fill="#34230b" d="M 202.621094 72.484375 C 201.6875 72.484375 200.929688 73.242188 200.929688 74.171875 C 200.929688 75.105469 201.6875 75.863281 202.621094 75.863281 C 203.554688 75.863281 204.308594 75.105469 204.308594 74.171875 C 204.308594 73.242188 203.554688 72.484375 202.621094 72.484375 " fill-opacity="1" fill-rule="nonzero"/><path fill="#34230b" d="M 268.722656 69.292969 C 267.789062 69.292969 267.03125 70.046875 267.03125 70.980469 C 267.03125 71.914062 267.789062 72.671875 268.722656 72.671875 C 269.65625 72.671875 270.410156 71.914062 270.410156 70.980469 C 270.410156 70.046875 269.65625 69.292969 268.722656 69.292969 " fill-opacity="1" fill-rule="nonzero"/><path fill="#34230b" d="M 252.558594 53.097656 C 251.625 53.097656 250.871094 53.851562 250.871094 54.785156 C 250.871094 55.71875 251.625 56.476562 252.558594 56.476562 C 253.492188 56.476562 254.25 55.71875 254.25 54.785156 C 254.25 53.851562 253.492188 53.097656 252.558594 53.097656 " fill-opacity="1" fill-rule="nonzero"/><path fill="#34230b" d="M 242.851562 68.261719 C 242.261719 68.261719 241.785156 67.785156 241.785156 67.199219 C 241.785156 66.609375 242.261719 66.132812 242.851562 66.132812 C 243.4375 66.132812 243.914062 66.609375 243.914062 67.199219 C 243.914062 67.785156 243.4375 68.261719 242.851562 68.261719 Z M 242.851562 65.507812 C 241.917969 65.507812 241.160156 66.265625 241.160156 67.199219 C 241.160156 68.128906 241.917969 68.886719 242.851562 68.886719 C 243.785156 68.886719 244.539062 68.128906 244.539062 67.199219 C 244.539062 66.265625 243.785156 65.507812 242.851562 65.507812 " fill-opacity="1" fill-rule="nonzero"/><path fill="#34230b" d="M 205.601562 56.917969 C 205.015625 56.917969 204.539062 56.441406 204.539062 55.851562 C 204.539062 55.261719 205.015625 54.785156 205.601562 54.785156 C 206.191406 54.785156 206.667969 55.261719 206.667969 55.851562 C 206.667969 56.441406 206.191406 56.917969 205.601562 56.917969 Z M 205.601562 54.164062 C 204.671875 54.164062 203.914062 54.917969 203.914062 55.851562 C 203.914062 56.785156 204.671875 57.539062 205.601562 57.539062 C 206.535156 57.539062 207.292969 56.785156 207.292969 55.851562 C 207.292969 54.917969 206.535156 54.164062 205.601562 54.164062 " fill-opacity="1" fill-rule="nonzero"/><g clip-path="url(#4d44886980)"><path fill="#34230b" d="M 209.382812 84.816406 L 187.46875 84.816406 L 172.894531 99.371094 L 172.894531 100.5625 L 187.816406 85.65625 L 209.730469 85.65625 L 217.902344 77.488281 L 251.378906 77.488281 L 251.378906 76.644531 L 217.550781 76.644531 Z M 204.367188 56.335938 L 204.367188 55.496094 L 183.761719 55.496094 L 172.894531 44.628906 L 172.894531 45.820312 L 183.414062 56.335938 Z M 232.886719 60.066406 L 226.886719 66.066406 L 216.21875 66.066406 L 211.1875 61.039062 L 172.894531 61.039062 L 172.894531 61.882812 L 210.839844 61.882812 L 215.867188 66.910156 L 227.238281 66.910156 L 233.234375 60.910156 L 268.722656 60.910156 L 268.722656 60.066406 Z M 187.523438 47.019531 L 209.441406 47.019531 L 217.609375 55.191406 L 251.378906 55.191406 L 251.378906 54.628906 L 217.84375 54.628906 L 209.671875 46.460938 L 187.757812 46.460938 L 172.894531 31.546875 L 172.894531 32.339844 L 187.441406 46.9375 Z M 210.542969 73.917969 L 210.625 74 L 236.582031 74 L 241.988281 68.59375 L 241.589844 68.195312 L 236.347656 73.4375 L 210.859375 73.4375 L 204.484375 67.0625 L 172.894531 67.0625 L 172.894531 67.625 L 204.253906 67.625 Z M 201.125 74.488281 L 201.125 73.925781 L 180.851562 73.925781 L 172.894531 81.878906 L 172.894531 82.675781 L 181.082031 74.488281 L 201.125 74.488281 " fill-opacity="1" fill-rule="nonzero"/></g><g fill="#34230b" fill-opacity="1"><g transform="translate(207.800462, 159.375415)"><g><path d="M 5.546875 -5.671875 C 5.546875 -5.203125 5.457031 -4.816406 5.28125 -4.515625 C 5.113281 -4.222656 4.863281 -3.984375 4.53125 -3.796875 C 4.894531 -3.660156 5.171875 -3.457031 5.359375 -3.1875 C 5.546875 -2.925781 5.640625 -2.566406 5.640625 -2.109375 C 5.640625 -1.367188 5.457031 -0.832031 5.09375 -0.5 C 4.738281 -0.164062 4.175781 0 3.40625 0 L 0.921875 0 L 0.921875 -7.5625 L 3.40625 -7.5625 C 4.113281 -7.5625 4.644531 -7.40625 5 -7.09375 C 5.363281 -6.78125 5.546875 -6.304688 5.546875 -5.671875 Z M 1.453125 -4.015625 L 3.40625 -4.015625 C 3.9375 -4.015625 4.332031 -4.140625 4.59375 -4.390625 C 4.863281 -4.640625 5 -5.054688 5 -5.640625 C 5 -6.160156 4.863281 -6.53125 4.59375 -6.75 C 4.332031 -6.96875 3.9375 -7.078125 3.40625 -7.078125 L 1.453125 -7.078125 Z M 1.453125 -3.53125 L 1.453125 -0.484375 L 3.40625 -0.484375 C 3.96875 -0.484375 4.390625 -0.601562 4.671875 -0.84375 C 4.960938 -1.09375 5.109375 -1.515625 5.109375 -2.109375 C 5.109375 -2.640625 4.960938 -3.007812 4.671875 -3.21875 C 4.390625 -3.425781 3.96875 -3.53125 3.40625 -3.53125 Z M 1.453125 -3.53125 "/></g></g></g><g fill="#34230b" fill-opacity="1"><g transform="translate(217.099733, 159.375415)"><g><path d="M 0.9375 -7.5625 L 3.015625 -3.703125 L 5.109375 -7.5625 L 5.703125 -7.5625 L 3.28125 -3.09375 L 3.28125 0 L 2.75 0 L 2.75 -3.09375 L 0.328125 -7.5625 Z M 0.9375 -7.5625 "/></g></g></g><g fill="#34230b" fill-opacity="1"><g transform="translate(226.139515, 159.375415)"><g/></g></g><g fill="#34230b" fill-opacity="1"><g transform="translate(232.497879, 159.375415)"><g><path d="M 5.03125 -2.21875 L 1.703125 -2.21875 L 0.890625 0 L 0.328125 0 L 3.09375 -7.5625 L 3.640625 -7.5625 L 6.40625 0 L 5.84375 0 Z M 1.875 -2.703125 L 4.84375 -2.703125 L 3.359375 -6.765625 Z M 1.875 -2.703125 "/></g></g></g><g fill="#34230b" fill-opacity="1"><g transform="translate(242.229639, 159.375415)"><g><path d="M 0.921875 0 L 0.921875 -7.5625 L 2.78125 -7.5625 C 3.53125 -7.5625 4.132812 -7.472656 4.59375 -7.296875 C 5.050781 -7.128906 5.410156 -6.878906 5.671875 -6.546875 C 5.929688 -6.222656 6.101562 -5.816406 6.1875 -5.328125 C 6.28125 -4.847656 6.328125 -4.304688 6.328125 -3.703125 C 6.328125 -3.160156 6.28125 -2.660156 6.1875 -2.203125 C 6.09375 -1.753906 5.914062 -1.363281 5.65625 -1.03125 C 5.40625 -0.707031 5.054688 -0.453125 4.609375 -0.265625 C 4.171875 -0.0859375 3.609375 0 2.921875 0 Z M 1.453125 -7.078125 L 1.453125 -0.484375 L 2.921875 -0.484375 C 3.492188 -0.484375 3.960938 -0.554688 4.328125 -0.703125 C 4.703125 -0.859375 4.992188 -1.078125 5.203125 -1.359375 C 5.421875 -1.640625 5.570312 -1.976562 5.65625 -2.375 C 5.738281 -2.769531 5.78125 -3.210938 5.78125 -3.703125 C 5.78125 -4.265625 5.738281 -4.753906 5.65625 -5.171875 C 5.582031 -5.597656 5.4375 -5.953125 5.21875 -6.234375 C 5 -6.515625 4.691406 -6.722656 4.296875 -6.859375 C 3.910156 -7.003906 3.40625 -7.078125 2.78125 -7.078125 Z M 1.453125 -7.078125 "/></g></g></g><g fill="#34230b" fill-opacity="1"><g transform="translate(252.318199, 159.375415)"><g><path d="M 5.375 -5.5 C 5.375 -4.882812 5.222656 -4.398438 4.921875 -4.046875 C 4.617188 -3.703125 4.171875 -3.5 3.578125 -3.4375 L 5.59375 0 L 4.96875 0 L 2.96875 -3.421875 L 1.453125 -3.421875 L 1.453125 0 L 0.921875 0 L 0.921875 -7.5625 L 3.140625 -7.5625 C 3.878906 -7.5625 4.4375 -7.382812 4.8125 -7.03125 C 5.1875 -6.6875 5.375 -6.175781 5.375 -5.5 Z M 1.453125 -7.078125 L 1.453125 -3.90625 L 3.140625 -3.90625 C 3.710938 -3.90625 4.132812 -4.03125 4.40625 -4.28125 C 4.6875 -4.53125 4.828125 -4.9375 4.828125 -5.5 C 4.828125 -6.050781 4.6875 -6.453125 4.40625 -6.703125 C 4.132812 -6.953125 3.710938 -7.078125 3.140625 -7.078125 Z M 1.453125 -7.078125 "/></g></g></g><g fill="#34230b" fill-opacity="1"><g transform="translate(261.455289, 159.375415)"><g><path d="M 2.96875 -7.078125 L 2.046875 -7.078125 L 2.046875 -0.484375 L 2.96875 -0.484375 L 2.96875 0 L 0.59375 0 L 0.59375 -0.484375 L 1.515625 -0.484375 L 1.515625 -7.078125 L 0.59375 -7.078125 L 0.59375 -7.5625 L 2.96875 -7.5625 Z M 2.96875 -7.078125 "/></g></g></g><g fill="#34230b" fill-opacity="1"><g transform="translate(268.029889, 159.375415)"><g><path d="M 5.03125 -2.21875 L 1.703125 -2.21875 L 0.890625 0 L 0.328125 0 L 3.09375 -7.5625 L 3.640625 -7.5625 L 6.40625 0 L 5.84375 0 Z M 1.875 -2.703125 L 4.84375 -2.703125 L 3.359375 -6.765625 Z M 2.765625 -8.21875 L 2.59375 -8.359375 L 3.578125 -9.828125 L 4.109375 -9.375 Z M 2.765625 -8.21875 "/></g></g></g><g fill="#34230b" fill-opacity="1"><g transform="translate(277.761649, 159.375415)"><g><path d="M 1.453125 -7.5625 L 5.625 -1 L 5.625 -7.5625 L 6.15625 -7.5625 L 6.15625 0 L 5.625 0 L 1.453125 -6.5625 L 1.453125 0 L 0.921875 0 L 0.921875 -7.5625 Z M 1.453125 -7.5625 "/></g></g></g><g fill="#34230b" fill-opacity="1"><g transform="translate(287.850209, 159.375415)"><g/></g></g><g fill="#34230b" fill-opacity="1"><g transform="translate(294.20857, 159.375415)"><g><path d="M 6.0625 -7.5625 L 6.625 -7.5625 L 3.734375 0 L 3.203125 0 L 0.328125 -7.5625 L 0.890625 -7.5625 L 3.46875 -0.765625 Z M 6.0625 -7.5625 "/></g></g></g><g fill="#34230b" fill-opacity="1"><g transform="translate(304.15657, 159.375415)"><g><path d="M 5.03125 -2.21875 L 1.703125 -2.21875 L 0.890625 0 L 0.328125 0 L 3.09375 -7.5625 L 3.640625 -7.5625 L 6.40625 0 L 5.84375 0 Z M 1.875 -2.703125 L 4.84375 -2.703125 L 3.359375 -6.765625 Z M 2.765625 -8.21875 L 2.59375 -8.359375 L 3.578125 -9.828125 L 4.109375 -9.375 Z M 2.765625 -8.21875 "/></g></g></g><g fill="#34230b" fill-opacity="1"><g transform="translate(313.888335, 159.375415)"><g><path d="M 1.3125 -0.515625 L 5.796875 -0.515625 L 5.796875 0 L 0.65625 0 L 0.65625 -0.484375 L 4.96875 -7.0625 L 0.8125 -7.0625 L 0.8125 -7.5625 L 5.640625 -7.5625 L 5.640625 -7.078125 Z M 1.3125 -0.515625 "/></g></g></g><g fill="#34230b" fill-opacity="1"><g transform="translate(323.33898, 159.375415)"><g><path d="M 6.578125 1.296875 C 6.160156 1.296875 5.804688 1.28125 5.515625 1.25 C 5.222656 1.21875 4.960938 1.15625 4.734375 1.0625 C 4.515625 0.976562 4.3125 0.859375 4.125 0.703125 C 3.9375 0.546875 3.738281 0.34375 3.53125 0.09375 C 3.101562 0.0703125 2.71875 -0.00390625 2.375 -0.140625 C 2.039062 -0.285156 1.75 -0.507812 1.5 -0.8125 C 1.257812 -1.113281 1.070312 -1.503906 0.9375 -1.984375 C 0.8125 -2.472656 0.75 -3.070312 0.75 -3.78125 C 0.75 -4.519531 0.820312 -5.140625 0.96875 -5.640625 C 1.113281 -6.140625 1.316406 -6.539062 1.578125 -6.84375 C 1.847656 -7.144531 2.164062 -7.359375 2.53125 -7.484375 C 2.894531 -7.609375 3.304688 -7.671875 3.765625 -7.671875 C 4.210938 -7.671875 4.617188 -7.609375 4.984375 -7.484375 C 5.359375 -7.359375 5.675781 -7.144531 5.9375 -6.84375 C 6.207031 -6.539062 6.410156 -6.140625 6.546875 -5.640625 C 6.691406 -5.140625 6.765625 -4.519531 6.765625 -3.78125 C 6.765625 -3.101562 6.703125 -2.53125 6.578125 -2.0625 C 6.460938 -1.59375 6.289062 -1.203125 6.0625 -0.890625 C 5.84375 -0.585938 5.578125 -0.359375 5.265625 -0.203125 C 4.953125 -0.046875 4.601562 0.0507812 4.21875 0.09375 C 4.363281 0.238281 4.515625 0.359375 4.671875 0.453125 C 4.828125 0.546875 5 0.617188 5.1875 0.671875 C 5.382812 0.722656 5.609375 0.757812 5.859375 0.78125 C 6.109375 0.800781 6.410156 0.8125 6.765625 0.8125 Z M 3.765625 -0.375 C 4.128906 -0.375 4.460938 -0.425781 4.765625 -0.53125 C 5.066406 -0.632812 5.328125 -0.8125 5.546875 -1.0625 C 5.765625 -1.320312 5.929688 -1.671875 6.046875 -2.109375 C 6.171875 -2.554688 6.234375 -3.113281 6.234375 -3.78125 C 6.234375 -4.457031 6.171875 -5.015625 6.046875 -5.453125 C 5.929688 -5.890625 5.765625 -6.234375 5.546875 -6.484375 C 5.328125 -6.742188 5.066406 -6.925781 4.765625 -7.03125 C 4.460938 -7.132812 4.128906 -7.1875 3.765625 -7.1875 C 3.398438 -7.1875 3.0625 -7.132812 2.75 -7.03125 C 2.445312 -6.925781 2.1875 -6.742188 1.96875 -6.484375 C 1.757812 -6.234375 1.59375 -5.890625 1.46875 -5.453125 C 1.351562 -5.015625 1.296875 -4.457031 1.296875 -3.78125 C 1.296875 -3.113281 1.351562 -2.554688 1.46875 -2.109375 C 1.59375 -1.671875 1.757812 -1.320312 1.96875 -1.0625 C 2.1875 -0.8125 2.445312 -0.632812 2.75 -0.53125 C 3.0625 -0.425781 3.398438 -0.375 3.765625 -0.375 Z M 3.765625 -0.375 "/></g></g></g><g fill="#34230b" fill-opacity="1"><g transform="translate(333.870846, 159.375415)"><g><path d="M 6.328125 -2.34375 C 6.328125 -1.882812 6.25 -1.492188 6.09375 -1.171875 C 5.9375 -0.859375 5.734375 -0.609375 5.484375 -0.421875 C 5.234375 -0.234375 4.941406 -0.0976562 4.609375 -0.015625 C 4.285156 0.0664062 3.957031 0.109375 3.625 0.109375 C 3.28125 0.109375 2.945312 0.0664062 2.625 -0.015625 C 2.300781 -0.0976562 2.015625 -0.234375 1.765625 -0.421875 C 1.515625 -0.617188 1.3125 -0.875 1.15625 -1.1875 C 1 -1.5 0.921875 -1.882812 0.921875 -2.34375 L 0.921875 -7.5625 L 1.453125 -7.5625 L 1.453125 -2.34375 C 1.453125 -1.957031 1.515625 -1.632812 1.640625 -1.375 C 1.765625 -1.125 1.925781 -0.925781 2.125 -0.78125 C 2.332031 -0.632812 2.566406 -0.53125 2.828125 -0.46875 C 3.085938 -0.40625 3.351562 -0.375 3.625 -0.375 C 3.894531 -0.375 4.15625 -0.40625 4.40625 -0.46875 C 4.664062 -0.53125 4.898438 -0.632812 5.109375 -0.78125 C 5.316406 -0.925781 5.476562 -1.125 5.59375 -1.375 C 5.71875 -1.632812 5.78125 -1.957031 5.78125 -2.34375 L 5.78125 -7.5625 L 6.328125 -7.5625 Z M 6.328125 -2.34375 "/></g></g></g><g fill="#34230b" fill-opacity="1"><g transform="translate(344.121602, 159.375415)"><g><path d="M 1.453125 -3.546875 L 1.453125 -0.484375 L 5.25 -0.484375 L 5.25 0 L 0.921875 0 L 0.921875 -7.5625 L 5.140625 -7.5625 L 5.140625 -7.078125 L 1.453125 -7.078125 L 1.453125 -4.03125 L 4.96875 -4.03125 L 4.96875 -3.546875 Z M 1.453125 -3.546875 "/></g></g></g><g fill="#34230b" fill-opacity="1"><g transform="translate(353.020828, 159.375415)"><g><path d="M 1.3125 -0.515625 L 5.796875 -0.515625 L 5.796875 0 L 0.65625 0 L 0.65625 -0.484375 L 4.96875 -7.0625 L 0.8125 -7.0625 L 0.8125 -7.5625 L 5.640625 -7.5625 L 5.640625 -7.078125 Z M 1.3125 -0.515625 "/></g></g></g></svg>