<svg width="425" height="199" xmlns="http://www.w3.org/2000/svg" xmlns:xlink="http://www.w3.org/1999/xlink" xml:space="preserve" overflow="hidden"><defs><clipPath id="clip0"><rect x="177" y="2" width="125" height="93"/></clipPath></defs><g><path d="M148.217-21.275C148.41-21.1605 148.561-20.968 148.675-20.6921 148.8-20.4111 148.863-20.1405 148.863-19.8803 148.946-19.2662 148.597-18.8394 147.822-18.5896 147.041-18.3502 146.063-18.1993 144.887-18.1316 143.705-18.0588 142.524-18.0275 141.348-18.0275 139.859-18.0275 138.751-17.9703 138.017-17.861 137.294-17.7205 136.872-17.3874 136.747-16.8618 136.622-16.3466 136.612-15.4723 136.726-14.2388 136.778-13.5727 136.851-12.7712 136.934-11.8449 137.71 1.5873 139.339 14.905 141.826 28.103 141.878 28.3528 141.951 28.5714 142.035 28.7691 142.144 29.2531 142.201 29.7475 142.201 30.2471 142.087 31.1215 141.566 31.7356 140.64 32.0999 139.708 32.4746 138.73 32.459 137.705 32.0582 136.674 31.6679 136.008 30.7311 135.706 29.2479 135.342 27.2495 134.978 25.2615 134.603 23.2943 133.989 20.5724 133.463 17.8246 133.021 15.0507 131.408 5.66744 130.273-3.75747 129.607-13.2396 129.55-14.7228 129.3-15.644 128.857-16.0083 128.425-16.3674 127.431-16.4507 125.881-16.2581 122.284-15.951 118.73-15.592 115.222-15.1756 105.449-13.8121 95.6543-12.7296 85.8286-11.9282 85.7714-11.9282 85.7141-11.9282 85.6621-11.9282 85.5476-11.9282 85.4175-11.9282 85.2666-11.9282 82.0191-11.9802 79.8333-10.3357 78.7092-6.99452 75.3629 2.13374 71.3452 10.9394 66.6561 19.4223 61.3946 29.0502 55.0038 37.887 47.4836 45.9224 42.2221 51.2932 36.232 55.6699 29.5185 59.0579 22.8155 62.4563 15.9094 64.8346 8.8056 66.1982 1.69659 67.5721-5.08976 67.9312-11.5743 67.2806-18.0692 66.6405-23.721 64.9699-28.5401 62.2637-33.3541 59.5679-36.8461 55.8625-39.0111 51.1474-41.1761 46.4272-41.4571 40.6661-39.8646 33.8693-38.2513 27.6919-35.3109 22.4043-31.0382 18.0067-26.7759 13.6039-21.7746 9.90891-16.0291 6.91125-10.2836 3.92401-4.31953 1.4624 1.85272-0.478792 8.02497-2.43559 13.8693-4.08534 19.3807-5.43324 27.4681-7.48372 36.0551-9.33644 45.1313-10.9914 54.218-12.6568 62.9091-13.8329 71.1942-14.5303 73.3592-14.5823 74.806-15.6648 75.545-17.7777 76.0446-19.1777 76.6067-20.5672 77.2312-21.9412 77.481-22.5657 77.7152-23.1381 77.939-23.669 79.1151-26.5417 80.2965-29.4197 81.4779-32.308 85.5007-42.5604 89.8307-52.9013 94.4677-63.3254 99.0995-73.7443 104.319-83.7469 110.122-93.3227 115.935-102.899 122.612-111.579 130.148-119.365 132.063-121.207 134.067-122.992 136.164-124.715 137.148-125.532 138.522-126.156 140.286-126.588 142.061-127.015 143.565-126.932 144.803-126.339 146.037-125.756 146.375-124.283 145.823-121.925 144.533-117.065 143.419-112.131 142.493-107.124 141.561-102.113 140.713-97.101 139.953-92.0945 139.953-91.8447 139.922-91.5949 139.87-91.3451 138.131-79.9894 137.065-69.2895 136.664-59.2453 136.273-49.2115 136.107-38.4751 136.164-27.0413 136.164-25.8027 136.216-24.5693 136.331-23.3359 136.414-22.472 136.851-22.0088 137.642-21.9412 139.016-21.8579 140.348-21.8579 141.639-21.9412 143.19-22.0088 144.741-22.0088 146.281-21.9412 146.958-21.8579 147.603-21.6341 148.217-21.275ZM71.2775-7.11942C71.7875-8.46212 71.8396-9.2896 71.4232-9.59665 71.0173-9.91411 70.143-9.97656 68.8003-9.784 62.2221-8.93571 55.6543-7.98333 49.1074-6.93207 42.5708-5.87561 36.0863-4.57975 29.6643-3.03929 28.7327-2.78948 27.7751-2.56049 26.7915-2.35232 21.4311-1.06167 15.6752 0.457975 9.51338 2.20661 3.36195 3.96564-2.61254 6.20868-8.4309 8.93051-14.2441 11.6471-19.2766 15.0403-23.5232 19.11-27.7803 23.1902-30.752 28.1082-32.4329 33.8693-34.1503 41.0304-33.7496 46.8383-31.2255 51.2932-28.6963 55.748-24.715 58.9382-19.2766 60.869-13.8329 62.8102-7.7023 63.5336-0.874315 63.034 5.93806 62.5448 12.7452 60.9314 19.5472 58.1836 26.344 55.4358 32.4381 51.6314 37.8245 46.7759 45.3603 39.5159 51.7511 31.3817 56.997 22.3783 59.8386 17.6841 62.4095 12.8649 64.6993 7.91047 66.9892 2.96643 69.1802-2.04007 71.2775-7.11942ZM135.165-105.168C135.165-105.303 135.191-105.485 135.248-105.709 135.441-106.719 135.706-108.113 136.039-109.893 136.383-111.683 136.612-113.291 136.726-114.723 136.919-115.956 136.872-116.69 136.581-116.929 136.299-117.179 135.644-116.685 134.603-115.451 133.989-114.712 133.375-113.978 132.75-113.245 130.387-110.632 128.098-107.942 125.881-105.168 120.884-98.7248 116.221-91.4752 111.892-83.4138 107.572-75.3629 103.565-67.01 99.8593-58.3501 96.1539-49.7007 92.6566-41.2802 89.3675-33.0783 87.8114-29.2896 86.2918-25.6362 84.8086-22.1285 83.5179-19.0892 83.0235-17.2677 83.3306-16.6744 83.648-16.0916 85.0688-16.0187 87.5981-16.4663 87.9572-16.4663 88.3891-16.4923 88.8887-16.5495 96.5078-17.2833 104.075-18.116 111.6-19.0476 114.889-19.4327 118.163-19.8074 121.426-20.1717 122.102-20.2966 122.748-20.3851 123.362-20.4423 124.486-20.5776 125.636-20.7025 126.817-20.817 127.551-20.8691 128.087-21.0877 128.42-21.4624 128.753-21.8475 128.92-22.472 128.92-23.3359 128.92-23.8771 128.92-24.4496 128.92-25.0637 128.92-25.3656 128.92-25.6778 128.92-26.0005 128.863-39.9895 129.19-53.1251 129.898-65.4071 130.616-77.6996 132.375-90.9548 135.165-105.168Z" fill="#34230B" transform="matrix(1 0 0 1.00247 42.7893 127.322)"/><path d="M22.3367-28.5193C22.8363-28.3788 23.2214-28.155 23.5024-27.8532 23.7939-27.5461 23.898-27.1246 23.8147-26.5833 23.5753-25.3447 23.263-24.1373 22.8779-22.9612 22.1389-20.4892 21.2021-18.0952 20.0676-15.7793 18.9279-13.4582 17.4655-11.3036 15.6752-9.30521 15.1028-8.69111 14.5199-8.12385 13.9266-7.59822 13.3437-7.08299 12.662-6.70308 11.8865-6.45328 10.0234-5.88081 8.25395-5.81316 6.57818-6.24511 4.91282-6.68747 3.5441-8.01976 2.47723-10.242 0.572469-14.4991-0.588081-18.9747-1.02003-23.669-1.15535-25.3603-0.608898-26.3596 0.624511-26.6666 1.69138-26.9685 2.67499-26.9997 3.58053-26.7499 4.48087-26.5001 5.08456-26.0057 5.39161-25.2719 5.85999-23.9812 6.2295-22.6489 6.49491-21.275 6.6042-20.9107 6.70308-20.5464 6.78635-20.1717 6.89564-19.5576 7.00493-18.9695 7.11942-18.4023 7.50454-16.8045 7.89486-15.4775 8.28518-14.4262 8.68591-13.3697 9.25317-12.9482 9.99217-13.1564 10.7416-13.3749 11.7304-14.5615 12.969-16.7161 14.7697-19.8074 16.2893-23.0549 17.5279-26.4584 18.4543-28.5662 20.0572-29.2531 22.3367-28.5193Z" fill="#34230B" transform="matrix(1 0 0 1.00247 194.992 127.322)"/><path d="M8.97214-16.4663C8.91489-16.4663 8.85765-16.4663 8.8056-16.4663 8.8056-16.4663 8.83162-16.4663 8.88887-16.4663 8.88887-16.4663 8.91489-16.4663 8.97214-16.4663ZM38.4699-20.7338C38.7717-20.9263 39.2609-21.1553 39.9271-21.4207 40.6036-21.6809 41.2489-21.8371 41.863-21.8787 42.4876-21.9203 42.9299-21.6913 43.1953-21.1917 43.3879-20.8274 43.4347-20.4736 43.3411-20.1301 43.2422-19.797 43.06-19.5056 42.7998-19.2558 41.2594-17.5592 38.8654-15.8522 35.6179-14.1348 32.3705-12.4122 29.0033-10.8873 25.5217-9.55502 22.0504-8.23314 19.1621-7.37964 16.8618-6.99452 14.2076-6.52093 11.5222-6.41165 8.8056-6.66145 5.45927-7.07779 2.96643-8.45692 1.33229-10.804-0.291438-13.146-0.94197-15.7845-0.624511-18.7145-0.150923-21.962 1.33229-24.5485 3.83033-26.4793 6.32838-28.4048 9.19072-29.1126 12.4278-28.6026 14.395-28.3528 16.18-27.6346 17.7777-26.4584 19.5264-25.0533 20.3018-23.44 20.1093-21.6081 19.9271-19.7866 18.8446-18.3866 16.8618-17.403 15.8209-16.8878 14.6656-16.5704 13.4062-16.4455 12.1415-16.3206 10.6635-16.3258 8.97214-16.4663 8.97214-16.4663 8.93051-16.4663 8.84724-16.4663 8.76397-16.4663 8.62866-16.4663 8.45171-16.4663 8.26956-16.4663 8.07701-16.4663 7.86884-16.4663 7.36923-16.4663 7.04136-16.3258 6.89044-16.0499 6.73431-15.7689 6.7291-15.4254 6.86962-15.0091 7.79598-12.7036 9.61747-11.4806 12.3237-11.3453 15.0299-11.2204 18.1004-11.7304 21.5456-12.8857 24.9856-14.0359 28.2487-15.3682 31.3296-16.8826 34.421-18.4075 36.8045-19.6929 38.4699-20.7338ZM8.88887-23.4192C8.47253-23.1121 8.18109-22.753 8.01456-22.3367 7.85843-21.9307 7.76996-21.5925 7.74394-21.3166 7.71271-21.0356 7.75434-20.8691 7.86884-20.817 7.99374-20.7598 8.34763-20.6817 8.93051-20.588 9.52379-20.4892 10.1795-20.4736 10.8873-20.5464 11.6055-20.6141 12.1988-20.765 12.6568-21.0044 13.1251-21.2386 13.2865-21.6705 13.1355-22.295 12.8285-23.1537 12.23-23.695 11.3453-23.9188 10.471-24.153 9.64869-23.9864 8.88887-23.4192Z" fill="#34230B" transform="matrix(1 0 0 1.00247 220.225 127.322)"/><path d="M55.6231-19.797C55.6231-19.797 55.6491-19.797 55.7064-19.797 56.0082-19.7397 56.3153-19.6357 56.6223-19.4847 56.9242-19.3286 57.1219-19.032 57.2052-18.5896 57.3821-17.7986 57.1636-17.174 56.5391-16.7161 54.0098-14.9518 51.2984-13.5623 48.3996-12.5527 45.7871-11.7044 43.1589-11.1683 40.5099-10.9498 37.8558-10.726 35.1652-10.7416 32.4329-10.9914 28.9201-11.3661 26.0889-13.0367 23.9396-16.0083 23.2578-16.9347 22.5657-17.8662 21.8579-18.7978 21.1917-19.7137 20.4892-20.6609 19.7554-21.6497 19.1413-22.4668 18.371-22.5657 17.4447-21.9412 16.3206-21.1345 15.3057-20.2185 14.4054-19.1933 13.4998-18.1629 12.662-17.1012 11.8865-16.0083 11.8293-15.8678 11.7616-15.7429 11.6784-15.6336 11.3557-15.2693 11.0434-14.8634 10.7416-14.4054 10.3773-13.7392 9.95574-13.1199 9.47175-12.5527 8.66509-11.6211 7.60863-11.0226 6.30756-10.7624 5.0169-10.497 3.77829-10.6011 2.60213-11.0747 1.73822-11.5326 1.18657-12.178 0.936766-13.0106 0.145719-16.1852-0.34348-19.3807-0.541243-22.5865-0.541243-24.3195 0.255008-25.3447 1.85272-25.6674 3.71064-26.0837 5.04293-25.4905 5.84959-23.898 5.95887-23.6325 6.04214-23.3203 6.09939-22.9612 6.19307-22.5969 6.31797-22.2378 6.4741-21.8787 6.62502-21.53 6.91125-21.2438 7.32759-21.0252 7.83761-21.4415 8.30599-21.8371 8.72234-22.2118 9.70594-23.0705 10.6635-23.9084 11.5951-24.7306 12.7192-25.657 13.8954-26.3179 15.134-26.7083 16.3674-27.109 17.6841-27.3119 19.0892-27.3119 22.3783-27.3119 24.97-26.0109 26.8748-23.4192 27.2495-22.8623 27.6294-22.3263 28.0197-21.8162 28.8628-20.5256 29.7475-19.287 30.6635-18.1108 32.1623-16.2061 34.1451-15.2277 36.6172-15.1756 39.1412-15.0611 41.5612-15.2901 43.8823-15.8626 46.1982-16.4298 48.4412-17.3094 50.6062-18.5063 50.6895-18.5584 50.7831-18.6312 50.8976-18.7145 51.6314-19.1308 52.3809-19.4639 53.1459-19.7137 53.9213-19.9635 54.7488-19.9896 55.6231-19.797Z" fill="#34230B" transform="matrix(1 0 0 1.00247 259.15 127.322)"/><path d="M30.6635-21.1085C31.0382-20.9107 31.2099-20.5776 31.1839-20.1093 31.1527-19.6513 31.007-19.2401 30.7468-18.881 28.842-16.0343 26.7967-13.5155 24.6057-11.3245 22.4095-9.14388 20.0052-7.51495 17.3822-6.43246 14.7593-5.34998 11.746-5.04293 8.34763-5.51651 6.06816-5.87561 4.35596-6.64584 3.20582-7.8272 2.05048-9.00336 1.19177-10.6791 0.624511-12.8441-0.291438-16.2425-0.499609-19.7397 0-23.3359 0.416341-25.4176 1.707-26.5001 3.87197-26.5833 5.81316-26.5833 6.86962-25.7142 7.03616-23.9812 7.0882-22.5344 7.0882-21.1137 7.03616-19.7137 7.03616-19.516 7.03616-19.339 7.03616-19.1725 6.92166-15.3265 7.54617-12.688 8.90969-11.262 10.268-9.84646 12.0427-9.47175 14.2388-10.1379 16.4298-10.8144 18.7613-12.3653 21.2334-14.7801 21.5352-15.0976 21.9203-15.5191 22.3783-16.0499 22.8467-16.5912 23.3671-17.122 23.9396-17.6528 24.715-18.4699 25.3603-19.1569 25.8756-19.7137 27.416-21.2646 29.0085-21.733 30.6635-21.1085ZM3.33072-32.7868C1.60812-32.8961 0.624511-33.8173 0.374707-35.5555 0.176944-36.8982 0.395524-38.1888 1.02003-39.4275 1.57169-40.4943 2.48243-41.2229 3.74707-41.6132 5.00649-42.014 6.20347-41.9047 7.32759-41.2802 7.75434-41.0564 8.06139-40.7441 8.24354-40.3434 8.42049-39.9375 8.48294-39.6044 8.4309-39.3442 8.37365-34.9154 6.67186-32.7296 3.33072-32.7868Z" fill="#34230B" transform="matrix(1 0 0 1.00247 311.134 127.322)"/><path d="M33.3697-20.817C33.9786-21.3166 34.4366-21.4884 34.7436-21.3375 35.0611-21.1813 35.2849-20.8691 35.4098-20.4007 35.5347-19.9427 35.5971-19.4899 35.5971-19.0476 35.5399-18.1993 35.3733-17.3874 35.0975-16.612 34.8165-15.847 34.6239-15.3422 34.5146-15.0923 34.4314-15.0351 34.3897-15.0091 34.3897-15.0091 33.5414-12.8441 32.2039-10.7052 30.372-8.59743 28.5506-6.48451 26.4012-4.78792 23.9188-3.49726 21.4467-2.20661 18.8238-1.64455 16.0499-1.81108 12.1467-2.25344 9.03979-3.75227 6.7239-6.30756 4.4028-8.87326 2.66458-11.9334 1.49883-15.4879 0.333072-19.0372-0.442362-22.5448-0.832681-26.0005-1.87353-34.5355-2.18579-43.1225-1.76945-51.772-1.68618-53.8797-1.61332-55.9874-1.56128-58.1003-1.56128-58.8341-1.56128-59.5627-1.56128-60.2861-1.56128-61.66-2.20661-62.347-3.49726-62.347-4.87119-62.347-6.2295-62.373-7.5774-62.4303-9.07623-62.4303-10.5959-62.4303-12.1363-62.4303-12.3289-62.4303-12.5371-62.4303-12.7608-62.4303-13.8277-62.3158-14.8269-62.5031-15.7585-62.9923-16.1748-63.1849-16.5183-63.4503-16.7993-63.7834-17.0908-64.1269-17.2365-64.5536-17.2365-65.0532-17.1793-65.5216-16.9763-65.8963-16.6328-66.1773-16.2997-66.4688-15.8834-66.6145-15.3838-66.6145-13.5779-66.6665-11.7824-66.6978-9.99217-66.6978-8.89408-66.6978-7.81159-66.6978-6.74472-66.6978-5.33957-66.6978-3.91881-66.7654-2.47723-66.9059-1.69659-66.958-1.21259-67.4264-1.02003-68.3007-0.895132-69.3415-0.791047-70.3824-0.707779-71.4232-0.483996-74.806-0.249804-78.1992 0-81.6028 0.192557-83.9603 0.374707-86.2762 0.541243-88.5556 0.541243-88.6389 0.541243-88.7066 0.541243-88.7638 0.541243-89.2478 0.582877-89.711 0.666145-90.1586 1.15014-92.1258 2.47723-93.0573 4.6422-92.948 6.48451-92.8075 7.50454-91.7823 7.7023-89.8671 7.75434-88.6285 7.75434-87.3691 7.7023-86.0784 7.7023-85.5632 7.7023-85.0428 7.7023-84.5171 7.7023-84.5171 7.67107-84.5171 7.61903-84.5171 7.53577-83.086 7.4629-81.6548 7.41086-80.2288 7.16106-77.023 6.97891-73.7756 6.86962-70.4865 6.75513-68.7795 6.91125-67.7022 7.32759-67.2598 7.75434-66.8279 8.89408-66.6405 10.7416-66.6978 14.2232-66.6405 17.6945-66.6145 21.1501-66.6145 23.6169-66.6145 26.0889-66.5833 28.561-66.5312 28.8108-66.5312 29.0502-66.5312 29.2896-66.5312 29.8985-66.5833 30.4813-66.5625 31.0382-66.4688 31.6055-66.3699 32.1727-66.1617 32.7452-65.8443 32.9117-65.6777 33.0679-65.5008 33.224-65.3238 33.3749-65.1417 33.4946-64.8971 33.5779-64.5952 33.5779-64.2726 33.479-64.0176 33.2864-63.825 33.0887-63.6273 32.9117-63.4763 32.7452-63.367 31.6211-62.7425 30.4397-62.4927 29.2063-62.6176 29.0241-62.6176 28.8108-62.6176 28.561-62.6176 24.8555-62.6176 21.1761-62.5864 17.5279-62.5344 15.4723-62.4615 13.4062-62.4303 11.3245-62.4303 11.1839-62.4303 11.059-62.4303 10.9498-62.4303 10.0182-62.4303 9.06582-62.399 8.09783-62.347 7.08299-62.2065 6.49491-61.6444 6.32838-60.6608 6.17225-60.104 6.09939-59.5627 6.09939-59.0371 5.87561-53.583 5.77673-48.1186 5.80795-42.6541 5.83397-37.2 6.18786-31.772 6.86962-26.3752 7.42127-22.0452 8.561-17.9026 10.2836-13.9474 11.21-11.7824 12.3445-10.0806 13.6768-8.84724 15.0091-7.60863 16.4975-7.0882 18.1525-7.28596 21.2438-7.79598 23.6377-8.89928 25.3343-10.5959 27.0413-12.2873 28.4829-14.1192 29.6643-16.0916 30.7884-18.0067 32.0218-19.5784 33.3697-20.817Z" fill="#34230B" transform="matrix(1 0 0 1.00247 336.957 127.322)"/><path d="M38.5948-21.1917C38.8966-21.1345 39.1048-21.046 39.2193-20.9211 39.3286-20.7962 39.4535-20.5464 39.594-20.1717 39.7189-19.8074 39.594-19.3702 39.2193-18.8602 38.855-18.3606 38.5219-17.9547 38.2201-17.6528 35.9146-15.4879 33.2136-14.1972 30.1222-13.7809 28.358-13.5311 26.5886-13.4686 24.8139-13.5935 23.0497-13.7184 21.3062-14.14 19.5888-14.8634 18.3502-15.4879 17.2001-15.3057 16.1332-14.3221 13.911-12.2925 11.5951-10.3565 9.18031-8.51416 7.9417-7.5826 6.64584-6.80717 5.28753-6.18266 3.92401-5.56856 2.4408-5.22507 0.832681-5.14181-3.85635-5.22507-5.70907-7.51495-4.72547-12.0114-4.66822-12.204-4.60056-12.3549-4.5173-12.4694-3.15378-16.1176-1.37392-19.4067 0.832681-22.3367 3.04969-25.2771 5.85999-27.7335 9.26358-29.7059 11.5118-31.0226 13.9266-31.5274 16.5079-31.2255 17.1845-31.085 17.8298-30.83 18.4439-30.4553 19.2037-30.091 19.516-29.5029 19.3807-28.6859 19.3234-28.4361 19.2037-28.2175 19.0268-28.0405 18.8446-27.8584 18.6521-27.6866 18.4439-27.5201 18.3294-27.3796 18.1837-27.2755 18.0067-27.2079 17.8246-27.1506 17.6372-27.1246 17.4447-27.1246 15.5815-27.0673 13.989-26.5261 12.6568-25.5009 11.3245-24.486 10.1067-23.3359 9.01377-22.0452 7.77516-20.6557 6.63022-19.1361 5.57896-17.4863 4.5225-15.8314 3.6638-13.8537 2.99765-11.5535 5.46447-12.9794 7.40045-14.395 8.8056-15.8001 9.10745-16.102 9.41971-16.383 9.74237-16.6328 9.99217-16.893 10.242-17.122 10.4918-17.3198 11.7252-18.4699 13.0158-19.4847 14.3638-20.3591 15.9042-21.2178 17.4291-21.6497 18.9435-21.6497 20.4683-21.6497 21.9464-21.0304 23.3775-19.797 25.3447-18.0588 27.2547-17.3822 29.1022-17.7569 30.9601-18.1316 32.6879-18.7822 34.2856-19.7137 35.9198-20.6973 37.3562-21.1917 38.5948-21.1917Z" fill="#34230B" transform="matrix(1 0 0 1.00247 367.752 127.322)"/><path d="M356.325 94.9413 330.72 94.9413 330.72 94.1919 356.325 94.1919 356.325 94.9413" fill="#34230B" transform="matrix(1 0 0 1.00247 -57.2904 -39.3995)"/><g><path d="M360.842 82.5916C359.703 82.5916 358.782 81.6756 358.782 80.5359 358.782 79.4014 359.703 78.4802 360.842 78.4802 361.977 78.4802 362.898 79.4014 362.898 80.5359 362.898 81.6756 361.977 82.5916 360.842 82.5916ZM360.842 77.2728C359.037 77.2728 357.579 78.7352 357.579 80.5359 357.579 82.3366 359.037 83.799 360.842 83.799 362.643 83.799 364.105 82.3366 364.105 80.5359 364.105 78.7352 362.643 77.2728 360.842 77.2728" fill="#34230B" transform="matrix(1 0 0 1.00247 -57.2904 -39.3995)"/></g><path d="M337.496 104.663C336.362 104.663 335.44 103.736 335.44 102.602 335.44 101.467 336.362 100.546 337.496 100.546 338.631 100.546 339.552 101.467 339.552 102.602 339.552 103.736 338.631 104.663 337.496 104.663ZM337.496 99.3389C335.695 99.3389 334.233 100.801 334.233 102.602 334.233 104.408 335.695 105.865 337.496 105.865 339.297 105.865 340.759 104.408 340.759 102.602 340.759 100.801 339.297 99.3389 337.496 99.3389" fill="#34230B" transform="matrix(1 0 0 1.00247 -57.2904 -39.3995)"/><path d="M269.95 96.5702C268.706 96.5702 267.697 97.5798 267.697 98.8184 267.697 100.062 268.706 101.072 269.95 101.072 271.194 101.072 272.198 100.062 272.198 98.8184 272.198 97.5798 271.194 96.5702 269.95 96.5702" fill="#34230B" transform="matrix(1 0 0 1.00247 -57.2904 -39.3995)"/><path d="M358.016 92.3183C356.773 92.3183 355.763 93.3227 355.763 94.5666 355.763 95.8104 356.773 96.82 358.016 96.82 359.26 96.82 360.265 95.8104 360.265 94.5666 360.265 93.3227 359.26 92.3183 358.016 92.3183" fill="#34230B" transform="matrix(1 0 0 1.00247 -57.2904 -39.3995)"/><path d="M336.481 70.7415C335.237 70.7415 334.233 71.7459 334.233 72.9897 334.233 74.2335 335.237 75.2432 336.481 75.2432 337.725 75.2432 338.735 74.2335 338.735 72.9897 338.735 71.7459 337.725 70.7415 336.481 70.7415" fill="#34230B" transform="matrix(1 0 0 1.00247 -57.2904 -39.3995)"/><path d="M323.549 90.9444C322.763 90.9444 322.128 90.3095 322.128 89.5288 322.128 88.743 322.763 88.1081 323.549 88.1081 324.329 88.1081 324.964 88.743 324.964 89.5288 324.964 90.3095 324.329 90.9444 323.549 90.9444ZM323.549 87.2754C322.305 87.2754 321.295 88.285 321.295 89.5288 321.295 90.7675 322.305 91.7771 323.549 91.7771 324.793 91.7771 325.797 90.7675 325.797 89.5288 325.797 88.285 324.793 87.2754 323.549 87.2754" fill="#34230B" transform="matrix(1 0 0 1.00247 -57.2904 -39.3995)"/><path d="M273.921 75.8312C273.14 75.8312 272.505 75.1963 272.505 74.4105 272.505 73.6246 273.14 72.9897 273.921 72.9897 274.707 72.9897 275.342 73.6246 275.342 74.4105 275.342 75.1963 274.707 75.8312 273.921 75.8312ZM273.921 72.1622C272.682 72.1622 271.673 73.1667 271.673 74.4105 271.673 75.6543 272.682 76.6587 273.921 76.6587 275.165 76.6587 276.174 75.6543 276.174 74.4105 276.174 73.1667 275.165 72.1622 273.921 72.1622" fill="#34230B" transform="matrix(1 0 0 1.00247 -57.2904 -39.3995)"/><g clip-path="url(#clip0)"><path d="M278.959 113 249.763 113 230.346 132.391 230.346 133.978 250.226 114.119 279.422 114.119 290.309 103.237 334.91 103.237 334.91 102.113 289.841 102.113ZM272.276 75.0558 272.276 73.9369 244.824 73.9369 230.346 59.4586 230.346 61.0459 244.361 75.0558ZM310.273 80.0259 302.279 88.0196 288.066 88.0196 281.363 81.3217 230.346 81.3217 230.346 82.4458 280.9 82.4458 287.598 89.1437 302.747 89.1437 310.736 81.15 358.016 81.15 358.016 80.0259ZM249.836 62.6437 279.037 62.6437 289.919 73.531 334.91 73.531 334.91 72.7815 290.231 72.7815 279.344 61.8994 250.148 61.8994 230.346 42.0296 230.346 43.086 249.726 62.5344ZM280.504 98.4802 280.614 98.5895 315.196 98.5895 322.399 91.3868 321.868 90.8559 314.884 97.84 280.926 97.84 272.432 89.3467 230.346 89.3467 230.346 90.0961 272.125 90.0961ZM267.957 99.24 267.957 98.4906 240.947 98.4906 230.346 109.086 230.346 110.148 241.254 99.24 267.957 99.24" fill="#34230B" transform="matrix(1 0 0 1.00247 -57.2904 -39.3995)"/></g><path d="M7.39005-7.55658C7.39005-6.93207 7.27035-6.41685 7.03616-6.01612 6.81237-5.6258 6.4793-5.30834 6.03694-5.05854 6.52093-4.87639 6.89044-4.60577 7.14024-4.24667 7.39005-3.89799 7.51495-3.4192 7.51495-2.8103 7.51495-1.82149 7.27035-1.10851 6.78635-0.666145 6.31276-0.218578 5.56335 0 4.53811 0L1.2282 0 1.2282-10.0754 4.53811-10.0754C5.48008-10.0754 6.18786-9.86727 6.66145-9.45093 7.14544-9.03459 7.39005-8.39967 7.39005-7.55658ZM1.93598-5.34998 4.53811-5.34998C5.24589-5.34998 5.77152-5.51651 6.12021-5.84959 6.4793-6.18266 6.66145-6.73431 6.66145-7.51495 6.66145-8.20711 6.4793-8.70152 6.12021-8.99296 5.77152-9.2844 5.24589-9.43011 4.53811-9.43011L1.93598-9.43011ZM1.93598-4.70465 1.93598-0.645328 4.53811-0.645328C5.28753-0.645328 5.84959-0.801455 6.22429-1.12412 6.60941-1.45719 6.80717-2.01925 6.80717-2.8103 6.80717-3.51808 6.60941-4.00728 6.22429-4.28831 5.84959-4.56413 5.28753-4.70465 4.53811-4.70465Z" fill="#34230B" transform="matrix(1 0 0 1.00247 219.56 173.459)"/><path d="M1.24902-10.0754 4.01769-4.93364 6.80717-10.0754 7.59822-10.0754 4.37158-4.12177 4.37158 0 3.6638 0 3.6638-4.12177 0.437158-10.0754Z" fill="#34230B" transform="matrix(1 0 0 1.00247 231.949 173.459)"/><path d="M6.70308-2.95602 2.26906-2.95602 1.18657 0 0.437158 0 4.12177-10.0754 4.85037-10.0754 8.53498 0 7.78557 0ZM2.49804-3.60135 6.45328-3.60135 4.47566-9.01377Z" fill="#34230B" transform="matrix(1 0 0 1.00247 252.464 173.459)"/><path d="M1.2282 0 1.2282-10.0754 3.70543-10.0754C4.70465-10.0754 5.5061-9.95574 6.12021-9.72155 6.7291-9.49777 7.2079-9.1647 7.55658-8.72234 7.90006-8.29038 8.12905-7.74914 8.24354-7.09861 8.36845-6.45848 8.4309-5.73509 8.4309-4.93364 8.4309-4.21024 8.36845-3.5441 8.24354-2.9352 8.11864-2.33671 7.87925-1.81629 7.53577-1.37392 7.20269-0.94197 6.73431-0.603694 6.14102-0.35389 5.55815-0.114494 4.80873 0 3.89278 0ZM1.93598-9.43011 1.93598-0.645328 3.89278-0.645328C4.65261-0.645328 5.27712-0.739005 5.76632-0.936766 6.26593-1.14494 6.65104-1.43638 6.93207-1.81108 7.22351-2.18579 7.42127-2.63335 7.53577-3.16419 7.64505-3.68982 7.7023-4.2779 7.7023-4.93364 7.7023-5.68305 7.64505-6.33358 7.53577-6.89044 7.43688-7.4577 7.24433-7.93129 6.95289-8.30599 6.66145-8.6807 6.25031-8.95653 5.72468-9.13868 5.20946-9.33123 4.53811-9.43011 3.70543-9.43011Z" fill="#34230B" transform="matrix(1 0 0 1.00247 265.43 173.459)"/><path d="M7.16106-7.32759C7.16106-6.50532 6.95809-5.85999 6.55736-5.39161 6.15143-4.93364 5.55815-4.66301 4.7671-4.57975L7.4525 0 6.61982 0 3.95524-4.55893 1.93598-4.55893 1.93598 0 1.2282 0 1.2282-10.0754 4.18422-10.0754C5.16783-10.0754 5.91204-9.83605 6.41165-9.36766 6.91125-8.90969 7.16106-8.22793 7.16106-7.32759ZM1.93598-9.43011 1.93598-5.20426 4.18422-5.20426C4.94405-5.20426 5.5061-5.37079 5.8704-5.70387 6.24511-6.03694 6.43246-6.57818 6.43246-7.32759 6.43246-8.06139 6.24511-8.59743 5.8704-8.93051 5.5061-9.26358 4.94405-9.43011 4.18422-9.43011Z" fill="#34230B" transform="matrix(1 0 0 1.00247 278.871 173.459)"/><path d="M3.95524-9.43011 2.72703-9.43011 2.72703-0.645328 3.95524-0.645328 3.95524 0 0.791047 0 0.791047-0.645328 2.01925-0.645328 2.01925-9.43011 0.791047-9.43011 0.791047-10.0754 3.95524-10.0754Z" fill="#34230B" transform="matrix(1 0 0 1.00247 291.044 173.459)"/><path d="M6.70308-2.95602 2.26906-2.95602 1.18657 0 0.437158 0 4.12177-10.0754 4.85037-10.0754 8.53498 0 7.78557 0ZM2.49804-3.60135 6.45328-3.60135 4.47566-9.01377ZM3.68461-10.9498 3.45563-11.1371 4.7671-13.0939 5.47488-12.4902Z" fill="#34230B" transform="matrix(1 0 0 1.00247 299.803 173.459)"/><path d="M1.93598-10.0754 7.49413-1.33229 7.49413-10.0754 8.20191-10.0754 8.20191 0 7.49413 0 1.93598-8.74315 1.93598 0 1.2282 0 1.2282-10.0754Z" fill="#34230B" transform="matrix(1 0 0 1.00247 312.769 173.459)"/><path d="M8.07701-10.0754 8.82642-10.0754 4.97527 0 4.26749 0 0.437158-10.0754 1.18657-10.0754 4.62138-1.02003Z" fill="#34230B" transform="matrix(1 0 0 1.00247 334.681 173.459)"/><path d="M6.70308-2.95602 2.26906-2.95602 1.18657 0 0.437158 0 4.12177-10.0754 4.85037-10.0754 8.53498 0 7.78557 0ZM2.49804-3.60135 6.45328-3.60135 4.47566-9.01377ZM3.68461-10.9498 3.45563-11.1371 4.7671-13.0939 5.47488-12.4902Z" fill="#34230B" transform="matrix(1 0 0 1.00247 347.934 173.459)"/><path d="M1.74863-0.686962 7.72312-0.686962 7.72312 0 0.874315 0 0.874315-0.645328 6.61982-9.4093 1.08249-9.4093 1.08249-10.0754 7.51495-10.0754 7.51495-9.43011Z" fill="#34230B" transform="matrix(1 0 0 1.00247 360.9 173.459)"/><path d="M8.76397 1.72781C8.20711 1.72781 7.73353 1.707 7.34841 1.66536 6.95809 1.62373 6.60941 1.54046 6.30756 1.41556 6.01612 1.30106 5.7455 1.14494 5.4957 0.936766 5.24589 0.728596 4.98047 0.457975 4.70465 0.124902 4.13218 0.0936766 3.62216-0.00520426 3.16419-0.187353 2.71662-0.37991 2.33151-0.676553 1.99843-1.08249 1.67577-1.48321 1.42597-2.00364 1.24902-2.64376 1.08249-3.29429 0.999217-4.09055 0.999217-5.03772 0.999217-6.02133 1.09289-6.8488 1.29066-7.51495 1.48321-8.18109 1.75383-8.71193 2.10252-9.11786 2.46161-9.51859 2.88316-9.80482 3.37236-9.97136 3.85635-10.1379 4.4028-10.2212 5.0169-10.2212 5.61019-10.2212 6.15143-10.1379 6.64063-9.97136 7.14024-9.80482 7.56179-9.51859 7.91047-9.11786 8.26956-8.71193 8.54019-8.18109 8.72234-7.51495 8.91489-6.8488 9.01377-6.02133 9.01377-5.03772 9.01377-4.13218 8.93051-3.37236 8.76397-2.74785 8.60784-2.12334 8.37885-1.60291 8.07701-1.18657 7.78557-0.780639 7.43168-0.478792 7.01534-0.270621 6.599-0.0624511 6.13061 0.0676553 5.6206 0.124902 5.81316 0.317459 6.01612 0.478792 6.22429 0.603694 6.43246 0.728596 6.66145 0.822273 6.91125 0.895132 7.17147 0.962787 7.47331 1.00963 7.80639 1.04085 8.13946 1.06687 8.54019 1.08249 9.01377 1.08249ZM5.0169-0.499609C5.5009-0.499609 5.94326-0.567264 6.34919-0.707779 6.74992-0.843089 7.09861-1.08249 7.39005-1.41556 7.68148-1.75904 7.90006-2.22742 8.05619-2.8103 8.22273-3.40359 8.30599-4.14779 8.30599-5.03772 8.30599-5.93806 8.22273-6.68227 8.05619-7.26514 7.90006-7.84802 7.68148-8.30599 7.39005-8.63907 7.09861-8.98255 6.74992-9.22715 6.34919-9.36766 5.94326-9.50297 5.5009-9.57583 5.0169-9.57583 4.5277-9.57583 4.08014-9.50297 3.6638-9.36766 3.25786-9.22715 2.91438-8.98255 2.62295-8.63907 2.34192-8.30599 2.12334-7.84802 1.9568-7.26514 1.80067-6.68227 1.72781-5.93806 1.72781-5.03772 1.72781-4.14779 1.80067-3.40359 1.9568-2.8103 2.12334-2.22742 2.34192-1.75904 2.62295-1.41556 2.91438-1.08249 3.25786-0.843089 3.6638-0.707779 4.08014-0.567264 4.5277-0.499609 5.0169-0.499609Z" fill="#34230B" transform="matrix(1 0 0 1.00247 373.491 173.459)"/><path d="M8.4309-3.12255C8.4309-2.50845 8.32681-1.98803 8.11864-1.56128 7.91047-1.14494 7.63985-0.811864 7.30678-0.56206 6.97371-0.312255 6.58338-0.130106 6.14102-0.020817 5.70907 0.0884723 5.27191 0.145719 4.82955 0.145719 4.37158 0.145719 3.92401 0.0884723 3.49726-0.020817 3.06531-0.130106 2.6854-0.312255 2.35232-0.56206 2.01925-0.822273 1.74863-1.16575 1.54046-1.58209 1.33229-1.99843 1.2282-2.50845 1.2282-3.12255L1.2282-10.0754 1.93598-10.0754 1.93598-3.12255C1.93598-2.60733 2.01925-2.17538 2.18579-1.8319 2.35232-1.49883 2.5657-1.23341 2.83112-1.04085 3.10694-0.843089 3.4192-0.707779 3.76788-0.624511 4.11136-0.541243 4.46525-0.499609 4.82955-0.499609 5.18864-0.499609 5.53733-0.541243 5.8704-0.624511 6.21388-0.707779 6.52614-0.843089 6.80717-1.04085 7.08299-1.23341 7.29637-1.49883 7.4525-1.8319 7.61903-2.17538 7.7023-2.60733 7.7023-3.12255L7.7023-10.0754 8.4309-10.0754Z" fill="#34230B" transform="matrix(1 0 0 1.00247 387.522 173.459)"/><path d="M1.93598-4.72547 1.93598-0.645328 6.99452-0.645328 6.99452 0 1.2282 0 1.2282-10.0754 6.8488-10.0754 6.8488-9.43011 1.93598-9.43011 1.93598-5.37079 6.61982-5.37079 6.61982-4.72547Z" fill="#34230B" transform="matrix(1 0 0 1.00247 401.179 173.459)"/><path d="M1.74863-0.686962 7.72312-0.686962 7.72312 0 0.874315 0 0.874315-0.645328 6.61982-9.4093 1.08249-9.4093 1.08249-10.0754 7.51495-10.0754 7.51495-9.43011Z" fill="#34230B" transform="matrix(1 0 0 1.00247 413.036 173.459)"/></g></svg>