<svg xmlns="http://www.w3.org/2000/svg" xmlns:xlink="http://www.w3.org/1999/xlink" width="500" zoomAndPan="magnify" viewBox="0 0 375 374.999991" height="500" preserveAspectRatio="xMidYMid meet" version="1.0"><defs><g/><clipPath id="49c47b4b27"><path d="M 229 146 L 234.503906 146 L 234.503906 152 L 229 152 Z M 229 146 " clip-rule="nonzero"/></clipPath><clipPath id="478e24a44f"><path d="M 137.59375 120.160156 L 231 120.160156 L 231 189.160156 L 137.59375 189.160156 Z M 137.59375 120.160156 " clip-rule="nonzero"/></clipPath></defs><g fill="#34230b" fill-opacity="1"><g transform="translate(35.875362, 213.784863)"><g><path d="M 111.65625 -16.03125 C 111.800781 -15.945312 111.914062 -15.796875 112 -15.578125 C 112.082031 -15.367188 112.125 -15.171875 112.125 -14.984375 C 112.195312 -14.515625 111.941406 -14.191406 111.359375 -14.015625 C 110.773438 -13.835938 110.035156 -13.71875 109.140625 -13.65625 C 108.253906 -13.601562 107.367188 -13.578125 106.484375 -13.578125 C 105.359375 -13.578125 104.519531 -13.535156 103.96875 -13.453125 C 103.425781 -13.347656 103.101562 -13.097656 103 -12.703125 C 102.90625 -12.316406 102.898438 -11.660156 102.984375 -10.734375 C 103.023438 -10.222656 103.082031 -9.617188 103.15625 -8.921875 C 103.738281 1.191406 104.960938 11.222656 106.828125 21.171875 C 106.867188 21.359375 106.921875 21.523438 106.984375 21.671875 C 107.066406 22.035156 107.109375 22.40625 107.109375 22.78125 C 107.023438 23.4375 106.632812 23.898438 105.9375 24.171875 C 105.238281 24.453125 104.503906 24.441406 103.734375 24.140625 C 102.960938 23.847656 102.460938 23.144531 102.234375 22.03125 C 101.953125 20.519531 101.675781 19.023438 101.40625 17.546875 C 100.9375 15.492188 100.535156 13.421875 100.203125 11.328125 C 98.992188 4.265625 98.132812 -2.832031 97.625 -9.96875 C 97.582031 -11.082031 97.394531 -11.773438 97.0625 -12.046875 C 96.738281 -12.328125 95.992188 -12.394531 94.828125 -12.25 C 92.117188 -12.019531 89.441406 -11.742188 86.796875 -11.421875 C 79.441406 -10.410156 72.0625 -9.597656 64.65625 -8.984375 C 64.613281 -8.984375 64.570312 -8.984375 64.53125 -8.984375 C 64.4375 -8.984375 64.335938 -8.984375 64.234375 -8.984375 C 61.785156 -9.023438 60.132812 -7.785156 59.28125 -5.265625 C 56.769531 1.609375 53.742188 8.238281 50.203125 14.625 C 46.253906 21.882812 41.441406 28.539062 35.765625 34.59375 C 31.804688 38.632812 27.296875 41.9375 22.234375 44.5 C 17.179688 47.0625 11.976562 48.851562 6.625 49.875 C 1.28125 50.90625 -3.832031 51.175781 -8.71875 50.6875 C -13.613281 50.195312 -17.875 48.9375 -21.5 46.90625 C -25.132812 44.875 -27.765625 42.082031 -29.390625 38.53125 C -31.015625 34.976562 -31.226562 30.640625 -30.03125 25.515625 C -28.820312 20.859375 -26.609375 16.875 -23.390625 13.5625 C -20.171875 10.25 -16.398438 7.46875 -12.078125 5.21875 C -7.753906 2.96875 -3.265625 1.109375 1.390625 -0.359375 C 6.046875 -1.835938 10.445312 -3.082031 14.59375 -4.09375 C 20.6875 -5.632812 27.15625 -7.03125 34 -8.28125 C 40.851562 -9.53125 47.398438 -10.421875 53.640625 -10.953125 C 55.265625 -10.992188 56.351562 -11.804688 56.90625 -13.390625 C 57.289062 -14.453125 57.710938 -15.5 58.171875 -16.53125 C 58.367188 -17 58.550781 -17.4375 58.71875 -17.84375 C 59.601562 -20 60.488281 -22.164062 61.375 -24.34375 C 64.40625 -32.0625 67.664062 -39.847656 71.15625 -47.703125 C 74.644531 -55.554688 78.578125 -63.085938 82.953125 -70.296875 C 87.335938 -77.515625 92.367188 -84.054688 98.046875 -89.921875 C 99.484375 -91.316406 100.992188 -92.660156 102.578125 -93.953125 C 103.316406 -94.554688 104.351562 -95.019531 105.6875 -95.34375 C 107.019531 -95.675781 108.148438 -95.617188 109.078125 -95.171875 C 110.015625 -94.734375 110.269531 -93.625 109.84375 -91.84375 C 108.875 -88.1875 108.039062 -84.46875 107.34375 -80.6875 C 106.644531 -76.914062 106.007812 -73.144531 105.4375 -69.375 C 105.4375 -69.1875 105.414062 -69 105.375 -68.8125 C 104.0625 -60.257812 103.253906 -52.203125 102.953125 -44.640625 C 102.660156 -37.078125 102.535156 -28.988281 102.578125 -20.375 C 102.578125 -19.445312 102.617188 -18.515625 102.703125 -17.578125 C 102.765625 -16.921875 103.09375 -16.570312 103.6875 -16.53125 C 104.726562 -16.46875 105.734375 -16.46875 106.703125 -16.53125 C 107.867188 -16.570312 109.035156 -16.570312 110.203125 -16.53125 C 110.703125 -16.46875 111.1875 -16.300781 111.65625 -16.03125 Z M 53.703125 -5.359375 C 54.078125 -6.378906 54.113281 -7.003906 53.8125 -7.234375 C 53.507812 -7.460938 52.847656 -7.503906 51.828125 -7.359375 C 46.878906 -6.722656 41.9375 -6.007812 37 -5.21875 C 32.070312 -4.425781 27.1875 -3.445312 22.34375 -2.28125 C 21.644531 -2.09375 20.925781 -1.925781 20.1875 -1.78125 C 16.144531 -0.800781 11.804688 0.347656 7.171875 1.671875 C 2.535156 2.992188 -1.96875 4.679688 -6.34375 6.734375 C -10.726562 8.785156 -14.519531 11.34375 -17.71875 14.40625 C -20.925781 17.476562 -23.164062 21.179688 -24.4375 25.515625 C -25.726562 30.910156 -25.421875 35.285156 -23.515625 38.640625 C -21.609375 41.992188 -18.609375 44.398438 -14.515625 45.859375 C -10.421875 47.316406 -5.800781 47.859375 -0.65625 47.484375 C 4.476562 47.117188 9.601562 45.898438 14.71875 43.828125 C 19.84375 41.753906 24.4375 38.890625 28.5 35.234375 C 34.164062 29.773438 38.976562 23.648438 42.9375 16.859375 C 45.070312 13.316406 47.003906 9.679688 48.734375 5.953125 C 50.460938 2.234375 52.117188 -1.535156 53.703125 -5.359375 Z M 101.8125 -79.21875 C 101.8125 -79.320312 101.832031 -79.457031 101.875 -79.625 C 102.03125 -80.394531 102.234375 -81.453125 102.484375 -82.796875 C 102.734375 -84.140625 102.898438 -85.347656 102.984375 -86.421875 C 103.140625 -87.347656 103.109375 -87.898438 102.890625 -88.078125 C 102.679688 -88.265625 102.1875 -87.894531 101.40625 -86.96875 C 100.9375 -86.414062 100.46875 -85.863281 100 -85.3125 C 98.226562 -83.34375 96.503906 -81.3125 94.828125 -79.21875 C 91.066406 -74.375 87.554688 -68.914062 84.296875 -62.84375 C 81.035156 -56.769531 78.007812 -50.472656 75.21875 -43.953125 C 72.425781 -37.441406 69.789062 -31.097656 67.3125 -24.921875 C 66.15625 -22.054688 65.015625 -19.300781 63.890625 -16.65625 C 62.910156 -14.375 62.535156 -13.007812 62.765625 -12.5625 C 63.003906 -12.125 64.078125 -12.070312 65.984375 -12.40625 C 66.253906 -12.40625 66.582031 -12.425781 66.96875 -12.46875 C 72.695312 -13.019531 78.398438 -13.644531 84.078125 -14.34375 C 86.546875 -14.644531 89.007812 -14.929688 91.46875 -15.203125 C 91.976562 -15.285156 92.46875 -15.347656 92.9375 -15.390625 C 93.78125 -15.492188 94.644531 -15.585938 95.53125 -15.671875 C 96.082031 -15.722656 96.484375 -15.890625 96.734375 -16.171875 C 96.992188 -16.453125 97.125 -16.921875 97.125 -17.578125 C 97.125 -17.984375 97.125 -18.421875 97.125 -18.890625 C 97.125 -19.117188 97.125 -19.347656 97.125 -19.578125 C 97.082031 -30.117188 97.328125 -40.015625 97.859375 -49.265625 C 98.398438 -58.523438 99.71875 -68.507812 101.8125 -79.21875 Z M 101.8125 -79.21875 "/></g></g></g><g fill="#34230b" fill-opacity="1"><g transform="translate(150.531983, 213.784863)"><g><path d="M 16.828125 -21.484375 C 17.203125 -21.378906 17.492188 -21.207031 17.703125 -20.96875 C 17.921875 -20.738281 18 -20.425781 17.9375 -20.03125 C 17.757812 -19.09375 17.523438 -18.179688 17.234375 -17.296875 C 16.679688 -15.429688 15.976562 -13.625 15.125 -11.875 C 14.269531 -10.132812 13.164062 -8.515625 11.8125 -7.015625 C 11.382812 -6.546875 10.945312 -6.113281 10.5 -5.71875 C 10.0625 -5.332031 9.546875 -5.046875 8.953125 -4.859375 C 7.554688 -4.429688 6.226562 -4.378906 4.96875 -4.703125 C 3.707031 -5.035156 2.675781 -6.039062 1.875 -7.71875 C 0.4375 -10.925781 -0.441406 -14.300781 -0.765625 -17.84375 C -0.867188 -19.101562 -0.457031 -19.851562 0.46875 -20.09375 C 1.28125 -20.320312 2.023438 -20.34375 2.703125 -20.15625 C 3.378906 -19.96875 3.832031 -19.597656 4.0625 -19.046875 C 4.425781 -18.066406 4.703125 -17.0625 4.890625 -16.03125 C 4.972656 -15.75 5.046875 -15.472656 5.109375 -15.203125 C 5.191406 -14.734375 5.273438 -14.289062 5.359375 -13.875 C 5.660156 -12.664062 5.957031 -11.664062 6.25 -10.875 C 6.550781 -10.082031 6.976562 -9.765625 7.53125 -9.921875 C 8.09375 -10.078125 8.84375 -10.96875 9.78125 -12.59375 C 11.132812 -14.925781 12.273438 -17.375 13.203125 -19.9375 C 13.898438 -21.519531 15.109375 -22.035156 16.828125 -21.484375 Z M 16.828125 -21.484375 "/></g></g></g><g fill="#34230b" fill-opacity="1"><g transform="translate(169.540927, 213.784863)"><g><path d="M 6.765625 -12.40625 C 6.722656 -12.40625 6.679688 -12.40625 6.640625 -12.40625 C 6.640625 -12.40625 6.660156 -12.40625 6.703125 -12.40625 C 6.703125 -12.40625 6.722656 -12.40625 6.765625 -12.40625 Z M 28.984375 -15.609375 C 29.210938 -15.765625 29.578125 -15.941406 30.078125 -16.140625 C 30.585938 -16.335938 31.078125 -16.453125 31.546875 -16.484375 C 32.015625 -16.515625 32.34375 -16.34375 32.53125 -15.96875 C 32.675781 -15.6875 32.710938 -15.421875 32.640625 -15.171875 C 32.566406 -14.921875 32.4375 -14.695312 32.25 -14.5 C 31.082031 -13.226562 29.273438 -11.941406 26.828125 -10.640625 C 24.390625 -9.347656 21.859375 -8.203125 19.234375 -7.203125 C 16.609375 -6.210938 14.429688 -5.566406 12.703125 -5.265625 C 10.710938 -4.910156 8.691406 -4.828125 6.640625 -5.015625 C 4.117188 -5.328125 2.242188 -6.367188 1.015625 -8.140625 C -0.210938 -9.910156 -0.707031 -11.894531 -0.46875 -14.09375 C -0.113281 -16.550781 1.003906 -18.503906 2.890625 -19.953125 C 4.773438 -21.398438 6.929688 -21.929688 9.359375 -21.546875 C 10.835938 -21.359375 12.179688 -20.820312 13.390625 -19.9375 C 14.703125 -18.875 15.289062 -17.65625 15.15625 -16.28125 C 15.019531 -14.90625 14.203125 -13.847656 12.703125 -13.109375 C 11.910156 -12.722656 11.039062 -12.484375 10.09375 -12.390625 C 9.144531 -12.296875 8.035156 -12.300781 6.765625 -12.40625 C 6.765625 -12.40625 6.726562 -12.40625 6.65625 -12.40625 C 6.59375 -12.40625 6.492188 -12.40625 6.359375 -12.40625 C 6.222656 -12.40625 6.082031 -12.40625 5.9375 -12.40625 C 5.550781 -12.40625 5.300781 -12.300781 5.1875 -12.09375 C 5.070312 -11.882812 5.066406 -11.617188 5.171875 -11.296875 C 5.867188 -9.566406 7.238281 -8.648438 9.28125 -8.546875 C 11.320312 -8.453125 13.640625 -8.835938 16.234375 -9.703125 C 18.828125 -10.578125 21.285156 -11.582031 23.609375 -12.71875 C 25.941406 -13.863281 27.734375 -14.828125 28.984375 -15.609375 Z M 6.703125 -17.640625 C 6.378906 -17.410156 6.160156 -17.140625 6.046875 -16.828125 C 5.929688 -16.523438 5.863281 -16.269531 5.84375 -16.0625 C 5.820312 -15.851562 5.851562 -15.722656 5.9375 -15.671875 C 6.019531 -15.628906 6.28125 -15.570312 6.71875 -15.5 C 7.164062 -15.425781 7.660156 -15.414062 8.203125 -15.46875 C 8.742188 -15.519531 9.1875 -15.632812 9.53125 -15.8125 C 9.882812 -16 10.007812 -16.328125 9.90625 -16.796875 C 9.664062 -17.453125 9.210938 -17.863281 8.546875 -18.03125 C 7.878906 -18.195312 7.265625 -18.066406 6.703125 -17.640625 Z M 6.703125 -17.640625 "/></g></g></g><g fill="#34230b" fill-opacity="1"><g transform="translate(198.863572, 213.784863)"><g><path d="M 41.890625 -14.921875 C 41.890625 -14.921875 41.910156 -14.921875 41.953125 -14.921875 C 42.191406 -14.878906 42.425781 -14.796875 42.65625 -14.671875 C 42.882812 -14.554688 43.03125 -14.332031 43.09375 -14 C 43.226562 -13.40625 43.0625 -12.9375 42.59375 -12.59375 C 40.6875 -11.257812 38.644531 -10.210938 36.46875 -9.453125 C 34.5 -8.816406 32.515625 -8.414062 30.515625 -8.25 C 28.515625 -8.082031 26.488281 -8.09375 24.4375 -8.28125 C 21.789062 -8.5625 19.65625 -9.820312 18.03125 -12.0625 C 17.519531 -12.757812 17 -13.457031 16.46875 -14.15625 C 15.957031 -14.851562 15.429688 -15.570312 14.890625 -16.3125 C 14.421875 -16.925781 13.835938 -17 13.140625 -16.53125 C 12.296875 -15.914062 11.535156 -15.222656 10.859375 -14.453125 C 10.179688 -13.679688 9.546875 -12.882812 8.953125 -12.0625 C 8.910156 -11.957031 8.859375 -11.863281 8.796875 -11.78125 C 8.554688 -11.5 8.320312 -11.191406 8.09375 -10.859375 C 7.820312 -10.347656 7.503906 -9.878906 7.140625 -9.453125 C 6.523438 -8.753906 5.726562 -8.304688 4.75 -8.109375 C 3.78125 -7.910156 2.851562 -7.988281 1.96875 -8.34375 C 1.3125 -8.6875 0.890625 -9.175781 0.703125 -9.8125 C 0.109375 -12.195312 -0.257812 -14.597656 -0.40625 -17.015625 C -0.40625 -18.328125 0.191406 -19.097656 1.390625 -19.328125 C 2.785156 -19.648438 3.789062 -19.207031 4.40625 -18 C 4.488281 -17.800781 4.554688 -17.566406 4.609375 -17.296875 C 4.671875 -17.023438 4.757812 -16.753906 4.875 -16.484375 C 4.988281 -16.222656 5.203125 -16.007812 5.515625 -15.84375 C 5.898438 -16.15625 6.25 -16.445312 6.5625 -16.71875 C 7.3125 -17.375 8.035156 -18.007812 8.734375 -18.625 C 9.578125 -19.320312 10.460938 -19.816406 11.390625 -20.109375 C 12.328125 -20.410156 13.320312 -20.5625 14.375 -20.5625 C 16.851562 -20.5625 18.8125 -19.585938 20.25 -17.640625 C 20.519531 -17.222656 20.804688 -16.820312 21.109375 -16.4375 C 21.742188 -15.46875 22.410156 -14.535156 23.109375 -13.640625 C 24.222656 -12.203125 25.710938 -11.460938 27.578125 -11.421875 C 29.484375 -11.335938 31.304688 -11.507812 33.046875 -11.9375 C 34.796875 -12.375 36.488281 -13.039062 38.125 -13.9375 C 38.1875 -13.976562 38.257812 -14.03125 38.34375 -14.09375 C 38.894531 -14.40625 39.457031 -14.65625 40.03125 -14.84375 C 40.613281 -15.039062 41.234375 -15.066406 41.890625 -14.921875 Z M 41.890625 -14.921875 "/></g></g></g><g fill="#34230b" fill-opacity="1"><g transform="translate(238.023902, 213.784863)"><g><path d="M 23.109375 -15.90625 C 23.378906 -15.75 23.503906 -15.492188 23.484375 -15.140625 C 23.460938 -14.796875 23.359375 -14.488281 23.171875 -14.21875 C 21.734375 -12.082031 20.1875 -10.1875 18.53125 -8.53125 C 16.882812 -6.882812 15.070312 -5.65625 13.09375 -4.84375 C 11.113281 -4.03125 8.84375 -3.800781 6.28125 -4.15625 C 4.570312 -4.4375 3.28125 -5.019531 2.40625 -5.90625 C 1.539062 -6.789062 0.894531 -8.050781 0.46875 -9.6875 C -0.226562 -12.238281 -0.382812 -14.867188 0 -17.578125 C 0.3125 -19.148438 1.285156 -19.96875 2.921875 -20.03125 C 4.378906 -20.03125 5.171875 -19.375 5.296875 -18.0625 C 5.335938 -16.976562 5.335938 -15.910156 5.296875 -14.859375 C 5.296875 -14.703125 5.296875 -14.5625 5.296875 -14.4375 C 5.210938 -11.539062 5.679688 -9.554688 6.703125 -8.484375 C 7.734375 -7.421875 9.070312 -7.140625 10.71875 -7.640625 C 12.375 -8.148438 14.132812 -9.316406 16 -11.140625 C 16.226562 -11.367188 16.515625 -11.6875 16.859375 -12.09375 C 17.210938 -12.5 17.601562 -12.898438 18.03125 -13.296875 C 18.625 -13.910156 19.109375 -14.429688 19.484375 -14.859375 C 20.648438 -16.015625 21.859375 -16.363281 23.109375 -15.90625 Z M 2.5 -24.6875 C 1.21875 -24.769531 0.476562 -25.46875 0.28125 -26.78125 C 0.132812 -27.800781 0.296875 -28.773438 0.765625 -29.703125 C 1.179688 -30.503906 1.863281 -31.050781 2.8125 -31.34375 C 3.769531 -31.644531 4.671875 -31.566406 5.515625 -31.109375 C 5.835938 -30.929688 6.066406 -30.6875 6.203125 -30.375 C 6.335938 -30.070312 6.382812 -29.828125 6.34375 -29.640625 C 6.300781 -26.296875 5.019531 -24.644531 2.5 -24.6875 Z M 2.5 -24.6875 "/></g></g></g><g fill="#34230b" fill-opacity="1"><g transform="translate(257.47714, 213.784863)"><g><path d="M 25.140625 -15.671875 C 25.597656 -16.054688 25.941406 -16.191406 26.171875 -16.078125 C 26.410156 -15.960938 26.578125 -15.726562 26.671875 -15.375 C 26.765625 -15.03125 26.8125 -14.6875 26.8125 -14.34375 C 26.769531 -13.707031 26.644531 -13.097656 26.4375 -12.515625 C 26.226562 -11.929688 26.082031 -11.546875 26 -11.359375 C 25.9375 -11.316406 25.90625 -11.296875 25.90625 -11.296875 C 25.269531 -9.671875 24.265625 -8.0625 22.890625 -6.46875 C 21.515625 -4.882812 19.894531 -3.601562 18.03125 -2.625 C 16.164062 -1.65625 14.1875 -1.234375 12.09375 -1.359375 C 9.15625 -1.703125 6.8125 -2.835938 5.0625 -4.765625 C 3.3125 -6.691406 2 -8.988281 1.125 -11.65625 C 0.25 -14.332031 -0.335938 -16.972656 -0.640625 -19.578125 C -1.421875 -26.015625 -1.648438 -32.488281 -1.328125 -39 C -1.265625 -40.59375 -1.210938 -42.179688 -1.171875 -43.765625 C -1.171875 -44.316406 -1.171875 -44.867188 -1.171875 -45.421875 C -1.171875 -46.453125 -1.660156 -46.96875 -2.640625 -46.96875 C -3.671875 -46.96875 -4.695312 -46.988281 -5.71875 -47.03125 C -6.832031 -47.03125 -7.972656 -47.03125 -9.140625 -47.03125 C -9.285156 -47.03125 -9.441406 -47.03125 -9.609375 -47.03125 C -10.421875 -46.945312 -11.175781 -47.085938 -11.875 -47.453125 C -12.1875 -47.597656 -12.445312 -47.796875 -12.65625 -48.046875 C -12.875 -48.304688 -12.984375 -48.625 -12.984375 -49 C -12.941406 -49.363281 -12.789062 -49.648438 -12.53125 -49.859375 C -12.28125 -50.066406 -11.960938 -50.171875 -11.578125 -50.171875 C -10.222656 -50.210938 -8.867188 -50.234375 -7.515625 -50.234375 C -6.691406 -50.234375 -5.878906 -50.234375 -5.078125 -50.234375 C -4.015625 -50.234375 -2.945312 -50.289062 -1.875 -50.40625 C -1.28125 -50.445312 -0.910156 -50.796875 -0.765625 -51.453125 C -0.679688 -52.234375 -0.609375 -53.015625 -0.546875 -53.796875 C -0.367188 -56.359375 -0.1875 -58.921875 0 -61.484375 C 0.144531 -63.253906 0.28125 -65 0.40625 -66.71875 C 0.40625 -66.78125 0.40625 -66.832031 0.40625 -66.875 C 0.40625 -67.226562 0.441406 -67.578125 0.515625 -67.921875 C 0.867188 -69.398438 1.859375 -70.097656 3.484375 -70.015625 C 4.890625 -69.910156 5.664062 -69.140625 5.8125 -67.703125 C 5.851562 -66.765625 5.851562 -65.8125 5.8125 -64.84375 C 5.8125 -64.457031 5.8125 -64.066406 5.8125 -63.671875 C 5.8125 -63.671875 5.789062 -63.671875 5.75 -63.671875 C 5.6875 -62.585938 5.632812 -61.507812 5.59375 -60.4375 C 5.394531 -58.019531 5.253906 -55.570312 5.171875 -53.09375 C 5.085938 -51.800781 5.203125 -50.988281 5.515625 -50.65625 C 5.835938 -50.332031 6.695312 -50.191406 8.09375 -50.234375 C 10.71875 -50.191406 13.332031 -50.171875 15.9375 -50.171875 C 17.789062 -50.171875 19.648438 -50.148438 21.515625 -50.109375 C 21.703125 -50.109375 21.882812 -50.109375 22.0625 -50.109375 C 22.519531 -50.148438 22.960938 -50.132812 23.390625 -50.0625 C 23.816406 -49.988281 24.238281 -49.835938 24.65625 -49.609375 C 24.78125 -49.484375 24.898438 -49.347656 25.015625 -49.203125 C 25.140625 -49.066406 25.234375 -48.882812 25.296875 -48.65625 C 25.296875 -48.425781 25.21875 -48.234375 25.0625 -48.078125 C 24.914062 -47.929688 24.78125 -47.816406 24.65625 -47.734375 C 23.8125 -47.265625 22.925781 -47.070312 22 -47.15625 C 21.863281 -47.15625 21.703125 -47.15625 21.515625 -47.15625 C 18.722656 -47.15625 15.953125 -47.132812 13.203125 -47.09375 C 11.660156 -47.050781 10.101562 -47.03125 8.53125 -47.03125 C 8.425781 -47.03125 8.332031 -47.03125 8.25 -47.03125 C 7.550781 -47.03125 6.832031 -47.007812 6.09375 -46.96875 C 5.332031 -46.863281 4.890625 -46.441406 4.765625 -45.703125 C 4.660156 -45.273438 4.609375 -44.863281 4.609375 -44.46875 C 4.429688 -40.363281 4.351562 -36.253906 4.375 -32.140625 C 4.394531 -28.023438 4.660156 -23.9375 5.171875 -19.875 C 5.597656 -16.613281 6.457031 -13.488281 7.75 -10.5 C 8.445312 -8.875 9.296875 -7.59375 10.296875 -6.65625 C 11.304688 -5.726562 12.429688 -5.335938 13.671875 -5.484375 C 16.003906 -5.867188 17.8125 -6.703125 19.09375 -7.984375 C 20.375 -9.265625 21.457031 -10.644531 22.34375 -12.125 C 23.1875 -13.5625 24.117188 -14.742188 25.140625 -15.671875 Z M 25.140625 -15.671875 "/></g></g></g><g fill="#34230b" fill-opacity="1"><g transform="translate(280.675045, 213.784863)"><g><path d="M 29.078125 -15.96875 C 29.304688 -15.925781 29.460938 -15.851562 29.546875 -15.75 C 29.628906 -15.65625 29.722656 -15.472656 29.828125 -15.203125 C 29.921875 -14.929688 29.828125 -14.601562 29.546875 -14.21875 C 29.273438 -13.832031 29.019531 -13.523438 28.78125 -13.296875 C 27.050781 -11.671875 25.019531 -10.695312 22.6875 -10.375 C 21.351562 -10.1875 20.019531 -10.140625 18.6875 -10.234375 C 17.351562 -10.328125 16.046875 -10.648438 14.765625 -11.203125 C 13.828125 -11.671875 12.957031 -11.535156 12.15625 -10.796875 C 10.488281 -9.265625 8.742188 -7.800781 6.921875 -6.40625 C 5.984375 -5.707031 5 -5.125 3.96875 -4.65625 C 2.945312 -4.195312 1.835938 -3.9375 0.640625 -3.875 C -2.898438 -3.9375 -4.300781 -5.660156 -3.5625 -9.046875 C -3.507812 -9.191406 -3.453125 -9.304688 -3.390625 -9.390625 C -2.378906 -12.140625 -1.039062 -14.617188 0.625 -16.828125 C 2.300781 -19.046875 4.421875 -20.894531 6.984375 -22.375 C 8.671875 -23.375 10.488281 -23.753906 12.4375 -23.515625 C 12.945312 -23.410156 13.4375 -23.222656 13.90625 -22.953125 C 14.476562 -22.671875 14.707031 -22.222656 14.59375 -21.609375 C 14.550781 -21.421875 14.460938 -21.257812 14.328125 -21.125 C 14.191406 -20.988281 14.050781 -20.851562 13.90625 -20.71875 C 13.820312 -20.613281 13.707031 -20.539062 13.5625 -20.5 C 13.425781 -20.457031 13.285156 -20.4375 13.140625 -20.4375 C 11.742188 -20.394531 10.539062 -19.988281 9.53125 -19.21875 C 8.53125 -18.445312 7.617188 -17.570312 6.796875 -16.59375 C 5.859375 -15.5625 4.992188 -14.421875 4.203125 -13.171875 C 3.410156 -11.921875 2.757812 -10.429688 2.25 -8.703125 C 4.113281 -9.773438 5.578125 -10.84375 6.640625 -11.90625 C 6.867188 -12.132812 7.097656 -12.34375 7.328125 -12.53125 C 7.523438 -12.726562 7.71875 -12.898438 7.90625 -13.046875 C 8.832031 -13.910156 9.804688 -14.671875 10.828125 -15.328125 C 11.984375 -15.984375 13.132812 -16.3125 14.28125 -16.3125 C 15.425781 -16.3125 16.535156 -15.847656 17.609375 -14.921875 C 19.097656 -13.609375 20.539062 -13.09375 21.9375 -13.375 C 23.332031 -13.664062 24.628906 -14.160156 25.828125 -14.859375 C 27.054688 -15.597656 28.140625 -15.96875 29.078125 -15.96875 Z M 29.078125 -15.96875 "/></g></g></g><path fill="#34230b" d="M 228.90625 160.019531 L 209.621094 160.019531 L 209.621094 159.457031 L 228.90625 159.457031 L 228.90625 160.019531 " fill-opacity="1" fill-rule="nonzero"/><g clip-path="url(#49c47b4b27)"><path fill="#34230b" d="M 232.3125 150.71875 C 231.457031 150.71875 230.761719 150.027344 230.761719 149.171875 C 230.761719 148.3125 231.457031 147.621094 232.3125 147.621094 C 233.167969 147.621094 233.859375 148.3125 233.859375 149.171875 C 233.859375 150.027344 233.167969 150.71875 232.3125 150.71875 Z M 232.3125 146.710938 C 230.953125 146.710938 229.851562 147.8125 229.851562 149.171875 C 229.851562 150.527344 230.953125 151.628906 232.3125 151.628906 C 233.667969 151.628906 234.769531 150.527344 234.769531 149.171875 C 234.769531 147.8125 233.667969 146.710938 232.3125 146.710938 " fill-opacity="1" fill-rule="nonzero"/></g><path fill="#34230b" d="M 214.726562 167.34375 C 213.867188 167.34375 213.175781 166.648438 213.175781 165.792969 C 213.175781 164.9375 213.867188 164.242188 214.726562 164.242188 C 215.582031 164.242188 216.273438 164.9375 216.273438 165.792969 C 216.273438 166.648438 215.582031 167.34375 214.726562 167.34375 Z M 214.726562 163.332031 C 213.367188 163.332031 212.265625 164.433594 212.265625 165.792969 C 212.265625 167.148438 213.367188 168.25 214.726562 168.25 C 216.082031 168.25 217.183594 167.148438 217.183594 165.792969 C 217.183594 164.433594 216.082031 163.332031 214.726562 163.332031 " fill-opacity="1" fill-rule="nonzero"/><path fill="#34230b" d="M 163.839844 161.246094 C 162.90625 161.246094 162.144531 162.007812 162.144531 162.941406 C 162.144531 163.878906 162.90625 164.636719 163.839844 164.636719 C 164.777344 164.636719 165.535156 163.878906 165.535156 162.941406 C 165.535156 162.007812 164.777344 161.246094 163.839844 161.246094 " fill-opacity="1" fill-rule="nonzero"/><path fill="#34230b" d="M 230.183594 158.042969 C 229.246094 158.042969 228.488281 158.800781 228.488281 159.738281 C 228.488281 160.675781 229.246094 161.433594 230.183594 161.433594 C 231.117188 161.433594 231.878906 160.675781 231.878906 159.738281 C 231.878906 158.800781 231.117188 158.042969 230.183594 158.042969 " fill-opacity="1" fill-rule="nonzero"/><path fill="#34230b" d="M 213.960938 141.789062 C 213.023438 141.789062 212.265625 142.550781 212.265625 143.484375 C 212.265625 144.421875 213.023438 145.179688 213.960938 145.179688 C 214.898438 145.179688 215.65625 144.421875 215.65625 143.484375 C 215.65625 142.550781 214.898438 141.789062 213.960938 141.789062 " fill-opacity="1" fill-rule="nonzero"/><path fill="#34230b" d="M 204.21875 157.011719 C 203.625 157.011719 203.148438 156.53125 203.148438 155.941406 C 203.148438 155.351562 203.625 154.875 204.21875 154.875 C 204.808594 154.875 205.285156 155.351562 205.285156 155.941406 C 205.285156 156.53125 204.808594 157.011719 204.21875 157.011719 Z M 204.21875 154.246094 C 203.28125 154.246094 202.523438 155.007812 202.523438 155.941406 C 202.523438 156.878906 203.28125 157.636719 204.21875 157.636719 C 205.152344 157.636719 205.910156 156.878906 205.910156 155.941406 C 205.910156 155.007812 205.152344 154.246094 204.21875 154.246094 " fill-opacity="1" fill-rule="nonzero"/><path fill="#34230b" d="M 166.835938 145.625 C 166.242188 145.625 165.765625 145.144531 165.765625 144.554688 C 165.765625 143.964844 166.242188 143.484375 166.835938 143.484375 C 167.425781 143.484375 167.902344 143.964844 167.902344 144.554688 C 167.902344 145.144531 167.425781 145.625 166.835938 145.625 Z M 166.835938 142.859375 C 165.898438 142.859375 165.140625 143.617188 165.140625 144.554688 C 165.140625 145.492188 165.898438 146.25 166.835938 146.25 C 167.769531 146.25 168.53125 145.492188 168.53125 144.554688 C 168.53125 143.617188 167.769531 142.859375 166.835938 142.859375 " fill-opacity="1" fill-rule="nonzero"/><g clip-path="url(#478e24a44f)"><path fill="#34230b" d="M 170.625 173.625 L 148.632812 173.625 L 134.007812 188.230469 L 134.007812 189.425781 L 148.984375 174.46875 L 170.976562 174.46875 L 179.175781 166.269531 L 212.773438 166.269531 L 212.773438 165.421875 L 178.828125 165.421875 Z M 165.59375 145.042969 L 165.59375 144.195312 L 144.914062 144.195312 L 134.007812 133.289062 L 134.007812 134.488281 L 144.5625 145.042969 Z M 194.21875 148.785156 L 188.195312 154.808594 L 177.488281 154.808594 L 172.441406 149.761719 L 134.007812 149.761719 L 134.007812 150.605469 L 172.089844 150.605469 L 177.136719 155.652344 L 188.546875 155.652344 L 194.566406 149.632812 L 230.183594 149.632812 L 230.183594 148.785156 Z M 148.691406 135.691406 L 170.683594 135.691406 L 178.886719 143.890625 L 212.773438 143.890625 L 212.773438 143.328125 L 179.117188 143.328125 L 170.917969 135.128906 L 148.925781 135.128906 L 134.007812 120.160156 L 134.007812 120.960938 L 148.609375 135.609375 Z M 171.792969 162.683594 L 171.875 162.769531 L 197.925781 162.769531 L 203.351562 157.34375 L 202.953125 156.945312 L 197.691406 162.203125 L 172.109375 162.203125 L 165.796875 155.890625 L 165.710938 155.808594 L 134.007812 155.808594 L 134.007812 156.371094 L 165.480469 156.371094 Z M 162.34375 163.257812 L 162.34375 162.691406 L 141.992188 162.691406 L 134.007812 170.675781 L 134.007812 171.476562 L 142.226562 163.257812 L 162.34375 163.257812 " fill-opacity="1" fill-rule="nonzero"/></g><g fill="#34230b" fill-opacity="1"><g transform="translate(169.039731, 248.454975)"><g><path d="M 5.578125 -5.703125 C 5.578125 -5.234375 5.488281 -4.847656 5.3125 -4.546875 C 5.144531 -4.242188 4.890625 -4 4.546875 -3.8125 C 4.921875 -3.675781 5.203125 -3.472656 5.390625 -3.203125 C 5.578125 -2.941406 5.671875 -2.582031 5.671875 -2.125 C 5.671875 -1.375 5.488281 -0.832031 5.125 -0.5 C 4.757812 -0.164062 4.191406 0 3.421875 0 L 0.921875 0 L 0.921875 -7.609375 L 3.421875 -7.609375 C 4.128906 -7.609375 4.664062 -7.445312 5.03125 -7.125 C 5.394531 -6.8125 5.578125 -6.335938 5.578125 -5.703125 Z M 1.46875 -4.046875 L 3.421875 -4.046875 C 3.953125 -4.046875 4.351562 -4.164062 4.625 -4.40625 C 4.894531 -4.65625 5.03125 -5.078125 5.03125 -5.671875 C 5.03125 -6.191406 4.894531 -6.5625 4.625 -6.78125 C 4.351562 -7 3.953125 -7.109375 3.421875 -7.109375 L 1.46875 -7.109375 Z M 1.46875 -3.546875 L 1.46875 -0.484375 L 3.421875 -0.484375 C 3.984375 -0.484375 4.40625 -0.601562 4.6875 -0.84375 C 4.976562 -1.09375 5.125 -1.519531 5.125 -2.125 C 5.125 -2.65625 4.976562 -3.023438 4.6875 -3.234375 C 4.40625 -3.441406 3.984375 -3.546875 3.421875 -3.546875 Z M 1.46875 -3.546875 "/></g></g></g><g fill="#34230b" fill-opacity="1"><g transform="translate(178.372818, 248.454975)"><g><path d="M 0.9375 -7.609375 L 3.03125 -3.71875 L 5.125 -7.609375 L 5.734375 -7.609375 L 3.296875 -3.109375 L 3.296875 0 L 2.765625 0 L 2.765625 -3.109375 L 0.328125 -7.609375 Z M 0.9375 -7.609375 "/></g></g></g><g fill="#34230b" fill-opacity="1"><g transform="translate(187.445472, 248.454975)"><g/></g></g><g fill="#34230b" fill-opacity="1"><g transform="translate(193.826957, 248.454975)"><g><path d="M 5.046875 -2.21875 L 1.703125 -2.21875 L 0.890625 0 L 0.328125 0 L 3.109375 -7.609375 L 3.65625 -7.609375 L 6.421875 0 L 5.859375 0 Z M 1.875 -2.71875 L 4.859375 -2.71875 L 3.375 -6.796875 Z M 1.875 -2.71875 "/></g></g></g><g fill="#34230b" fill-opacity="1"><g transform="translate(203.594106, 248.454975)"><g><path d="M 0.921875 0 L 0.921875 -7.609375 L 2.796875 -7.609375 C 3.546875 -7.609375 4.148438 -7.519531 4.609375 -7.34375 C 5.078125 -7.164062 5.4375 -6.910156 5.6875 -6.578125 C 5.945312 -6.242188 6.125 -5.835938 6.21875 -5.359375 C 6.3125 -4.878906 6.359375 -4.332031 6.359375 -3.71875 C 6.359375 -3.175781 6.3125 -2.675781 6.21875 -2.21875 C 6.125 -1.769531 5.945312 -1.378906 5.6875 -1.046875 C 5.425781 -0.710938 5.070312 -0.453125 4.625 -0.265625 C 4.1875 -0.0859375 3.625 0 2.9375 0 Z M 1.46875 -7.109375 L 1.46875 -0.484375 L 2.9375 -0.484375 C 3.507812 -0.484375 3.976562 -0.554688 4.34375 -0.703125 C 4.71875 -0.859375 5.015625 -1.078125 5.234375 -1.359375 C 5.453125 -1.648438 5.601562 -1.992188 5.6875 -2.390625 C 5.769531 -2.785156 5.8125 -3.226562 5.8125 -3.71875 C 5.8125 -4.28125 5.769531 -4.769531 5.6875 -5.1875 C 5.613281 -5.613281 5.46875 -5.96875 5.25 -6.25 C 5.03125 -6.53125 4.722656 -6.742188 4.328125 -6.890625 C 3.929688 -7.035156 3.421875 -7.109375 2.796875 -7.109375 Z M 1.46875 -7.109375 "/></g></g></g><g fill="#34230b" fill-opacity="1"><g transform="translate(213.719351, 248.454975)"><g><path d="M 5.390625 -5.515625 C 5.390625 -4.898438 5.238281 -4.414062 4.9375 -4.0625 C 4.632812 -3.71875 4.1875 -3.515625 3.59375 -3.453125 L 5.609375 0 L 4.984375 0 L 2.96875 -3.4375 L 1.46875 -3.4375 L 1.46875 0 L 0.921875 0 L 0.921875 -7.609375 L 3.15625 -7.609375 C 3.894531 -7.609375 4.453125 -7.425781 4.828125 -7.0625 C 5.203125 -6.707031 5.390625 -6.191406 5.390625 -5.515625 Z M 1.46875 -7.109375 L 1.46875 -3.921875 L 3.15625 -3.921875 C 3.726562 -3.921875 4.15625 -4.046875 4.4375 -4.296875 C 4.71875 -4.546875 4.859375 -4.953125 4.859375 -5.515625 C 4.859375 -6.078125 4.71875 -6.484375 4.4375 -6.734375 C 4.15625 -6.984375 3.726562 -7.109375 3.15625 -7.109375 Z M 1.46875 -7.109375 "/></g></g></g><g fill="#34230b" fill-opacity="1"><g transform="translate(222.889667, 248.454975)"><g><path d="M 2.984375 -7.109375 L 2.0625 -7.109375 L 2.0625 -0.484375 L 2.984375 -0.484375 L 2.984375 0 L 0.59375 0 L 0.59375 -0.484375 L 1.515625 -0.484375 L 1.515625 -7.109375 L 0.59375 -7.109375 L 0.59375 -7.609375 L 2.984375 -7.609375 Z M 2.984375 -7.109375 "/></g></g></g><g fill="#34230b" fill-opacity="1"><g transform="translate(229.488176, 248.454975)"><g><path d="M 5.046875 -2.21875 L 1.703125 -2.21875 L 0.890625 0 L 0.328125 0 L 3.109375 -7.609375 L 3.65625 -7.609375 L 6.421875 0 L 5.859375 0 Z M 1.875 -2.71875 L 4.859375 -2.71875 L 3.375 -6.796875 Z M 2.78125 -8.25 L 2.609375 -8.40625 L 3.59375 -9.875 L 4.125 -9.421875 Z M 2.78125 -8.25 "/></g></g></g><g fill="#34230b" fill-opacity="1"><g transform="translate(239.255324, 248.454975)"><g><path d="M 1.46875 -7.609375 L 5.640625 -1.015625 L 5.640625 -7.609375 L 6.1875 -7.609375 L 6.1875 0 L 5.640625 0 L 1.46875 -6.59375 L 1.46875 0 L 0.921875 0 L 0.921875 -7.609375 Z M 1.46875 -7.609375 "/></g></g></g><g fill="#34230b" fill-opacity="1"><g transform="translate(249.380569, 248.454975)"><g/></g></g><g fill="#34230b" fill-opacity="1"><g transform="translate(255.762052, 248.454975)"><g><path d="M 6.078125 -7.609375 L 6.640625 -7.609375 L 3.75 0 L 3.21875 0 L 0.328125 -7.609375 L 0.890625 -7.609375 L 3.484375 -0.765625 Z M 6.078125 -7.609375 "/></g></g></g><g fill="#34230b" fill-opacity="1"><g transform="translate(265.746226, 248.454975)"><g><path d="M 5.046875 -2.21875 L 1.703125 -2.21875 L 0.890625 0 L 0.328125 0 L 3.109375 -7.609375 L 3.65625 -7.609375 L 6.421875 0 L 5.859375 0 Z M 1.875 -2.71875 L 4.859375 -2.71875 L 3.375 -6.796875 Z M 2.78125 -8.25 L 2.609375 -8.40625 L 3.59375 -9.875 L 4.125 -9.421875 Z M 2.78125 -8.25 "/></g></g></g><g fill="#34230b" fill-opacity="1"><g transform="translate(275.51338, 248.454975)"><g><path d="M 1.3125 -0.515625 L 5.828125 -0.515625 L 5.828125 0 L 0.65625 0 L 0.65625 -0.484375 L 5 -7.09375 L 0.8125 -7.09375 L 0.8125 -7.609375 L 5.65625 -7.609375 L 5.65625 -7.109375 Z M 1.3125 -0.515625 "/></g></g></g><g fill="#34230b" fill-opacity="1"><g transform="translate(284.998391, 248.454975)"><g><path d="M 6.609375 1.296875 C 6.191406 1.296875 5.835938 1.28125 5.546875 1.25 C 5.253906 1.21875 4.992188 1.15625 4.765625 1.0625 C 4.546875 0.976562 4.335938 0.859375 4.140625 0.703125 C 3.953125 0.554688 3.753906 0.351562 3.546875 0.09375 C 3.117188 0.0703125 2.734375 -0.00390625 2.390625 -0.140625 C 2.046875 -0.285156 1.753906 -0.507812 1.515625 -0.8125 C 1.273438 -1.113281 1.085938 -1.507812 0.953125 -2 C 0.828125 -2.488281 0.765625 -3.085938 0.765625 -3.796875 C 0.765625 -4.546875 0.832031 -5.171875 0.96875 -5.671875 C 1.113281 -6.171875 1.316406 -6.570312 1.578125 -6.875 C 1.847656 -7.175781 2.164062 -7.390625 2.53125 -7.515625 C 2.90625 -7.640625 3.320312 -7.703125 3.78125 -7.703125 C 4.238281 -7.703125 4.648438 -7.640625 5.015625 -7.515625 C 5.390625 -7.390625 5.707031 -7.175781 5.96875 -6.875 C 6.226562 -6.570312 6.429688 -6.171875 6.578125 -5.671875 C 6.722656 -5.171875 6.796875 -4.546875 6.796875 -3.796875 C 6.796875 -3.117188 6.734375 -2.539062 6.609375 -2.0625 C 6.484375 -1.59375 6.3125 -1.203125 6.09375 -0.890625 C 5.875 -0.585938 5.609375 -0.359375 5.296875 -0.203125 C 4.984375 -0.046875 4.628906 0.0507812 4.234375 0.09375 C 4.390625 0.238281 4.546875 0.359375 4.703125 0.453125 C 4.859375 0.546875 5.03125 0.617188 5.21875 0.671875 C 5.40625 0.734375 5.625 0.769531 5.875 0.78125 C 6.132812 0.800781 6.441406 0.8125 6.796875 0.8125 Z M 3.78125 -0.375 C 4.144531 -0.375 4.476562 -0.425781 4.78125 -0.53125 C 5.09375 -0.632812 5.351562 -0.816406 5.5625 -1.078125 C 5.78125 -1.335938 5.945312 -1.6875 6.0625 -2.125 C 6.1875 -2.570312 6.25 -3.128906 6.25 -3.796875 C 6.25 -4.472656 6.1875 -5.03125 6.0625 -5.46875 C 5.945312 -5.914062 5.78125 -6.265625 5.5625 -6.515625 C 5.351562 -6.773438 5.09375 -6.957031 4.78125 -7.0625 C 4.476562 -7.164062 4.144531 -7.21875 3.78125 -7.21875 C 3.40625 -7.21875 3.066406 -7.164062 2.765625 -7.0625 C 2.460938 -6.957031 2.203125 -6.773438 1.984375 -6.515625 C 1.765625 -6.265625 1.59375 -5.914062 1.46875 -5.46875 C 1.351562 -5.03125 1.296875 -4.472656 1.296875 -3.796875 C 1.296875 -3.128906 1.351562 -2.570312 1.46875 -2.125 C 1.59375 -1.6875 1.765625 -1.335938 1.984375 -1.078125 C 2.203125 -0.816406 2.460938 -0.632812 2.765625 -0.53125 C 3.066406 -0.425781 3.40625 -0.375 3.78125 -0.375 Z M 3.78125 -0.375 "/></g></g></g><g fill="#34230b" fill-opacity="1"><g transform="translate(295.568554, 248.454975)"><g><path d="M 6.359375 -2.359375 C 6.359375 -1.890625 6.28125 -1.492188 6.125 -1.171875 C 5.96875 -0.859375 5.757812 -0.609375 5.5 -0.421875 C 5.25 -0.234375 4.957031 -0.0976562 4.625 -0.015625 C 4.300781 0.0664062 3.972656 0.109375 3.640625 0.109375 C 3.296875 0.109375 2.960938 0.0664062 2.640625 -0.015625 C 2.316406 -0.0976562 2.023438 -0.234375 1.765625 -0.421875 C 1.515625 -0.617188 1.3125 -0.875 1.15625 -1.1875 C 1 -1.5 0.921875 -1.890625 0.921875 -2.359375 L 0.921875 -7.609375 L 1.46875 -7.609375 L 1.46875 -2.359375 C 1.46875 -1.960938 1.523438 -1.640625 1.640625 -1.390625 C 1.765625 -1.140625 1.929688 -0.9375 2.140625 -0.78125 C 2.347656 -0.632812 2.582031 -0.53125 2.84375 -0.46875 C 3.101562 -0.40625 3.367188 -0.375 3.640625 -0.375 C 3.910156 -0.375 4.175781 -0.40625 4.4375 -0.46875 C 4.695312 -0.53125 4.925781 -0.632812 5.125 -0.78125 C 5.332031 -0.9375 5.5 -1.140625 5.625 -1.390625 C 5.75 -1.640625 5.8125 -1.960938 5.8125 -2.359375 L 5.8125 -7.609375 L 6.359375 -7.609375 Z M 6.359375 -2.359375 "/></g></g></g><g fill="#34230b" fill-opacity="1"><g transform="translate(305.856586, 248.454975)"><g><path d="M 1.46875 -3.5625 L 1.46875 -0.484375 L 5.265625 -0.484375 L 5.265625 0 L 0.921875 0 L 0.921875 -7.609375 L 5.15625 -7.609375 L 5.15625 -7.109375 L 1.46875 -7.109375 L 1.46875 -4.046875 L 5 -4.046875 L 5 -3.5625 Z M 1.46875 -3.5625 "/></g></g></g><g fill="#34230b" fill-opacity="1"><g transform="translate(314.788173, 248.454975)"><g><path d="M 1.3125 -0.515625 L 5.828125 -0.515625 L 5.828125 0 L 0.65625 0 L 0.65625 -0.484375 L 5 -7.09375 L 0.8125 -7.09375 L 0.8125 -7.609375 L 5.65625 -7.609375 L 5.65625 -7.109375 Z M 1.3125 -0.515625 "/></g></g></g></svg>